<?xml version="1.0" encoding="UTF-8" standalone="no"?><!DOCTYPE svg PUBLIC "-//W3C//DTD SVG 1.1//EN" "http://www.w3.org/Graphics/SVG/1.1/DTD/svg11.dtd"><svg width="100%" height="100%" viewBox="0 0 320 568" version="1.1" xmlns="http://www.w3.org/2000/svg" xmlns:xlink="http://www.w3.org/1999/xlink" xml:space="preserve" style="fill-rule:evenodd;clip-rule:evenodd;stroke-linejoin:round;stroke-miterlimit:1.41421;"><rect id="iPhone.-5" x="0" y="0" width="320" height="568" style="fill:none;"/><g><path d="M256.056,9c32.493,0 58.874,26.38 58.874,58.873l0,432.254c0,32.493 -26.381,58.873 -58.874,58.873l-192.112,0c-32.493,0 -58.874,-26.38 -58.874,-58.873l0,-432.254c0,-32.493 26.381,-58.873 58.874,-58.873l192.112,0Zm24.818,101.975l-241.747,0l0,374.92l241.747,0l0,-374.92Z" style="fill:#d8e4e1;"/><rect x="39.127" y="60.45" width="240.733" height="49.879" style="fill:#f3f3f4;"/><path d="M202.072,36.919c0,-3.146 -2.554,-5.7 -5.7,-5.7l-72.744,0c-3.146,0 -5.7,2.554 -5.7,5.7l0,3.6c0,3.146 2.554,5.7 5.7,5.7l72.744,0c3.146,0 5.7,-2.554 5.7,-5.7l0,-3.6Z" style="fill:#c7c6c6;"/><circle cx="160" cy="520.127" r="20" style="fill:#c7c6c6;"/><g><path d="M245.914,74.905c0,-1.121 -0.911,-2.032 -2.032,-2.032l-21.336,0c-1.122,0 -2.032,0.911 -2.032,2.032l0,21.436c0,1.122 0.91,2.032 2.032,2.032l21.336,0c1.121,0 2.032,-0.91 2.032,-2.032l0,-21.436l0,0Z" style="fill:#c7c6c6;"/><g><circle cx="260.056" cy="74.873" r="4" style="fill:#c7c6c6;"/><circle cx="260.056" cy="96.373" r="4" style="fill:#c7c6c6;"/><circle cx="260.056" cy="85.623" r="4" style="fill:#c7c6c6;"/></g></g><path d="M196.753,78.248c0,-4.07 -3.305,-7.375 -7.375,-7.375l-131.148,0c-4.07,0 -7.375,3.305 -7.375,7.375l0,14.75c0,4.07 3.305,7.375 7.375,7.375l131.148,0c4.07,0 7.375,-3.305 7.375,-7.375l0,-14.75Z" style="fill:#fff;"/></g></svg>