<?xml version="1.0" encoding="UTF-8" standalone="no"?><!DOCTYPE svg PUBLIC "-//W3C//DTD SVG 1.1//EN" "http://www.w3.org/Graphics/SVG/1.1/DTD/svg11.dtd"><svg width="100%" height="100%" viewBox="0 0 800 600" version="1.1" xmlns="http://www.w3.org/2000/svg" xmlns:xlink="http://www.w3.org/1999/xlink" xml:space="preserve" style="fill-rule:evenodd;clip-rule:evenodd;stroke-linejoin:round;stroke-miterlimit:1.41421;"><rect id="Mesa-de-trabajo1" x="0" y="0" width="800" height="600" style="fill:none;"/><clipPath id="_clip1"><rect id="Mesa-de-trabajo11" x="0" y="0" width="800" height="600"/></clipPath><g clip-path="url(#_clip1)"><path d="M0,0l800,0l0,600l-800,0l0,-600Zm781.59,486.923l0,-420.502l-752.136,0l0,420.502l752.136,0Z" style="fill:#fff;"/><g><rect x="387.116" y="478.664" width="31.765" height="97.672" style="fill:#d8e4e1;"/><path d="M418.881,525.937c0,22.835 5.339,43.682 14.117,59.487l0,2.632l-61.521,0c9.679,-16.086 15.639,-37.992 15.639,-62.119l31.765,0Zm-51.879,0l0,0l0,0l0,0Z" style="fill:#d8e4e1;"/></g><path d="M770.546,11.765c10.737,0 19.454,8.717 19.454,19.454l0,447.445c0,10.737 -8.717,19.454 -19.454,19.454l-741.092,0c-10.737,0 -19.454,-8.717 -19.454,-19.454l0,-447.445c0,-10.737 8.717,-19.454 19.454,-19.454l741.092,0Zm-22.372,19.454l-696.348,0c-12.348,0 -22.372,10.025 -22.372,22.372l0,402.7c0,12.348 10.025,22.373 22.372,22.373l696.348,0c12.347,0 22.372,-10.025 22.372,-22.373l0,-402.7c0,-12.347 -10.024,-22.372 -22.372,-22.372Z" style="fill:#d8e4e1;"/><path d="M748.174,31.219c12.347,0 22.372,10.024 22.372,22.372l0,22.968l-741.092,0l0,-22.968c0,-12.348 10.025,-22.372 22.372,-22.372l696.348,0Z" style="fill:#f3f3f4;"/><circle cx="641.226" cy="54.162" r="10" style="fill:#f46666;"/><circle cx="680.756" cy="53.591" r="10" style="fill:#eaef68;"/><circle cx="720.286" cy="53.591" r="10" style="fill:#92ea77;"/></g></svg>