<?xml version="1.0" encoding="UTF-8" standalone="no"?>

<!DOCTYPE svg PUBLIC "-//W3C//DTD SVG 1.1//EN" "http://www.w3.org/Graphics/SVG/1.1/DTD/svg11.dtd">
<svg width="100%" height="100%" viewBox="0 0 135 124" version="1.1" xmlns="http://www.w3.org/2000/svg" xmlns:xlink="http://www.w3.org/1999/xlink" xml:space="preserve" style="fill-rule:evenodd;clip-rule:evenodd;stroke-linecap:round;stroke-linejoin:round;stroke-miterlimit:1.5;"><path d="M121.138,22.368c0,-4.756 -3.862,-8.618 -8.618,-8.618l-90.152,0c-4.756,0 -8.618,3.862 -8.618,8.618l0,78.519c0,4.756 3.862,8.617 8.618,8.617l90.152,0c4.756,0 8.618,-3.861 8.618,-8.617l0,-78.519Z" style="fill:none;stroke:#2dd274;stroke-width:3.56px;"/><path d="M133.107,13.75c0,-6.606 -5.363,-11.969 -11.969,-11.969l-107.388,0c-6.606,0 -11.969,5.363 -11.969,11.969l0,95.754c0,6.606 5.363,11.97 11.969,11.97l107.388,0c6.606,0 11.969,-5.364 11.969,-11.97l0,-95.754Z" style="fill:none;stroke:#2dd274;stroke-width:3.56px;"/><text x="25.344px" y="72.014px" style="font-family: 'Satisfy',cursive; font-size:40px;fill:#2dd274;">Play!</text></svg>