<?xml version="1.0" encoding="UTF-8" standalone="no"?><!DOCTYPE svg PUBLIC "-//W3C//DTD SVG 1.1//EN" "http://www.w3.org/Graphics/SVG/1.1/DTD/svg11.dtd"><svg width="100%" height="100%" viewBox="0 0 414 736" version="1.1" xmlns="http://www.w3.org/2000/svg" xmlns:xlink="http://www.w3.org/1999/xlink" xml:space="preserve" style="fill-rule:evenodd;clip-rule:evenodd;stroke-linejoin:round;stroke-miterlimit:1.41421;"><rect id="iPhone-6-Plus" x="0" y="0" width="414" height="736" style="fill:none;"/><clipPath id="_clip1"><rect id="iPhone-6-Plus1" x="0" y="0" width="414" height="736"/></clipPath><g clip-path="url(#_clip1)"><g><g opacity="0.42029"><rect x="-168.42" y="411.093" width="750.84" height="9.29" style="fill:#454c53;fill-rule:nonzero;"/><rect x="190.726" y="270.718" width="54.994" height="146.568" style="fill:#d926a5;fill-rule:nonzero;"/><rect x="205.317" y="287.233" width="5.612" height="19.611" style="fill:#fff;fill-rule:nonzero;"/><rect x="215.417" y="287.233" width="5.612" height="19.611" style="fill:#fff;fill-rule:nonzero;"/><rect x="225.518" y="287.233" width="5.612" height="19.611" style="fill:#fff;fill-rule:nonzero;"/><rect x="235.619" y="287.233" width="5.612" height="19.611" style="fill:#fff;fill-rule:nonzero;"/><rect x="195.216" y="310.973" width="5.612" height="19.611" style="fill:#fff;fill-rule:nonzero;"/><rect x="205.317" y="310.973" width="5.612" height="19.611" style="fill:#fff;fill-rule:nonzero;"/><rect x="225.518" y="310.973" width="5.612" height="19.611" style="fill:#fff;fill-rule:nonzero;"/><rect x="195.216" y="334.713" width="5.612" height="19.611" style="fill:#fff;fill-rule:nonzero;"/><rect x="205.317" y="334.713" width="5.612" height="19.611" style="fill:#fff;fill-rule:nonzero;"/><rect x="215.417" y="334.713" width="5.612" height="19.611" style="fill:#fff;fill-rule:nonzero;"/><rect x="225.518" y="334.713" width="5.612" height="19.611" style="fill:#fff;fill-rule:nonzero;"/><rect x="235.619" y="334.713" width="5.612" height="19.611" style="fill:#fff;fill-rule:nonzero;"/><rect x="195.216" y="358.452" width="5.612" height="19.611" style="fill:#fff;fill-rule:nonzero;"/><rect x="215.417" y="358.452" width="5.612" height="19.611" style="fill:#fff;fill-rule:nonzero;"/><rect x="225.518" y="358.452" width="5.612" height="19.611" style="fill:#fff;fill-rule:nonzero;"/><rect x="235.619" y="358.452" width="5.612" height="19.611" style="fill:#fff;fill-rule:nonzero;"/><rect x="195.216" y="382.192" width="5.612" height="19.611" style="fill:#fff;fill-rule:nonzero;"/><rect x="205.317" y="382.192" width="5.612" height="19.611" style="fill:#fff;fill-rule:nonzero;"/><rect x="215.417" y="382.192" width="5.612" height="19.611" style="fill:#fff;fill-rule:nonzero;"/><rect x="235.619" y="382.192" width="5.612" height="19.611" style="fill:#fff;fill-rule:nonzero;"/><rect x="25.743" y="300.651" width="43.771" height="116.635" style="fill:#3345cc;fill-rule:nonzero;"/><rect x="29.11" y="314.069" width="5.612" height="7.225" style="fill:#fff;fill-rule:nonzero;"/><rect x="45.945" y="314.069" width="4.489" height="7.225" style="fill:#fff;fill-rule:nonzero;"/><rect x="53.802" y="314.069" width="4.489" height="7.225" style="fill:#fff;fill-rule:nonzero;"/><rect x="62.78" y="314.069" width="3.367" height="7.225" style="fill:#fff;fill-rule:nonzero;"/><rect x="29.11" y="323.359" width="5.612" height="8.257" style="fill:#fff;fill-rule:nonzero;"/><rect x="38.089" y="323.359" width="4.489" height="8.257" style="fill:#fff;fill-rule:nonzero;"/><rect x="45.945" y="323.359" width="4.489" height="8.257" style="fill:#fff;fill-rule:nonzero;"/><rect x="62.78" y="323.359" width="3.367" height="8.257" style="fill:#fff;fill-rule:nonzero;"/><rect x="29.11" y="332.648" width="5.612" height="8.257" style="fill:#fff;fill-rule:nonzero;"/><rect x="45.945" y="332.648" width="4.489" height="8.257" style="fill:#fff;fill-rule:nonzero;"/><rect x="53.802" y="332.648" width="4.489" height="8.257" style="fill:#fff;fill-rule:nonzero;"/><rect x="62.78" y="332.648" width="3.367" height="8.257" style="fill:#fff;fill-rule:nonzero;"/><rect x="29.11" y="342.97" width="5.612" height="8.257" style="fill:#fff;fill-rule:nonzero;"/><rect x="38.089" y="342.97" width="4.489" height="8.257" style="fill:#fff;fill-rule:nonzero;"/><rect x="45.945" y="342.97" width="4.489" height="8.257" style="fill:#fff;fill-rule:nonzero;"/><rect x="53.802" y="342.97" width="4.489" height="8.257" style="fill:#fff;fill-rule:nonzero;"/><rect x="62.78" y="342.97" width="3.367" height="8.257" style="fill:#fff;fill-rule:nonzero;"/><rect x="29.11" y="352.259" width="5.612" height="8.257" style="fill:#fff;fill-rule:nonzero;"/><rect x="45.945" y="352.259" width="4.489" height="8.257" style="fill:#fff;fill-rule:nonzero;"/><rect x="62.78" y="352.259" width="3.367" height="8.257" style="fill:#fff;fill-rule:nonzero;"/><rect x="29.11" y="362.581" width="5.612" height="8.257" style="fill:#fff;fill-rule:nonzero;"/><rect x="45.945" y="362.581" width="4.489" height="8.257" style="fill:#fff;fill-rule:nonzero;"/><rect x="53.802" y="362.581" width="4.489" height="8.257" style="fill:#fff;fill-rule:nonzero;"/><rect x="62.78" y="362.581" width="3.367" height="8.257" style="fill:#fff;fill-rule:nonzero;"/><rect x="29.11" y="371.871" width="5.612" height="7.225" style="fill:#fff;fill-rule:nonzero;"/><rect x="38.089" y="371.871" width="4.489" height="7.225" style="fill:#fff;fill-rule:nonzero;"/><rect x="45.945" y="371.871" width="4.489" height="7.225" style="fill:#fff;fill-rule:nonzero;"/><rect x="62.78" y="371.871" width="3.367" height="7.225" style="fill:#fff;fill-rule:nonzero;"/><rect x="45.945" y="381.16" width="4.489" height="8.257" style="fill:#fff;fill-rule:nonzero;"/><rect x="53.802" y="381.16" width="4.489" height="8.257" style="fill:#fff;fill-rule:nonzero;"/><rect x="29.11" y="390.45" width="5.612" height="9.29" style="fill:#fff;fill-rule:nonzero;"/><rect x="38.089" y="390.45" width="4.489" height="9.29" style="fill:#fff;fill-rule:nonzero;"/><rect x="45.945" y="390.45" width="4.489" height="9.29" style="fill:#fff;fill-rule:nonzero;"/><rect x="53.802" y="390.45" width="4.489" height="9.29" style="fill:#fff;fill-rule:nonzero;"/><rect x="62.78" y="390.45" width="3.367" height="9.29" style="fill:#fff;fill-rule:nonzero;"/><rect x="29.11" y="400.771" width="5.612" height="8.257" style="fill:#fff;fill-rule:nonzero;"/><rect x="45.945" y="400.771" width="4.489" height="8.257" style="fill:#fff;fill-rule:nonzero;"/><rect x="62.78" y="400.771" width="3.367" height="8.257" style="fill:#fff;fill-rule:nonzero;"/><rect x="135.732" y="285.168" width="49.383" height="132.118" style="fill:#c33;fill-rule:nonzero;"/><rect x="149.2" y="300.651" width="4.489" height="17.547" style="fill:#fff;fill-rule:nonzero;"/><rect x="167.157" y="300.651" width="4.489" height="17.547" style="fill:#fff;fill-rule:nonzero;"/><rect x="176.136" y="300.651" width="4.489" height="17.547" style="fill:#fff;fill-rule:nonzero;"/><rect x="149.2" y="322.326" width="4.489" height="17.547" style="fill:#fff;fill-rule:nonzero;"/><rect x="158.179" y="322.326" width="4.489" height="17.547" style="fill:#fff;fill-rule:nonzero;"/><rect x="176.136" y="322.326" width="4.489" height="17.547" style="fill:#fff;fill-rule:nonzero;"/><rect x="149.2" y="342.97" width="4.489" height="17.547" style="fill:#fff;fill-rule:nonzero;"/><rect x="167.157" y="342.97" width="4.489" height="17.547" style="fill:#fff;fill-rule:nonzero;"/><rect x="176.136" y="342.97" width="4.489" height="17.547" style="fill:#fff;fill-rule:nonzero;"/><rect x="149.2" y="364.645" width="4.489" height="17.547" style="fill:#fff;fill-rule:nonzero;"/><rect x="158.179" y="364.645" width="4.489" height="17.547" style="fill:#fff;fill-rule:nonzero;"/><rect x="176.136" y="364.645" width="4.489" height="17.547" style="fill:#fff;fill-rule:nonzero;"/><rect x="158.179" y="385.289" width="4.489" height="18.579" style="fill:#fff;fill-rule:nonzero;"/><rect x="176.136" y="385.289" width="4.489" height="18.579" style="fill:#fff;fill-rule:nonzero;"/><path d="M353.464,266.589l-42.648,-14.45l0,165.147l42.648,0l0,-150.697Z" style="fill:#cc6933;fill-rule:nonzero;"/><rect x="315.305" y="275.879" width="33.67" height="3.097" style="fill:#fff;fill-rule:nonzero;"/><rect x="315.305" y="282.072" width="33.67" height="3.097" style="fill:#fff;fill-rule:nonzero;"/><rect x="315.305" y="288.265" width="33.67" height="3.097" style="fill:#fff;fill-rule:nonzero;"/><rect x="315.305" y="294.458" width="33.67" height="3.097" style="fill:#fff;fill-rule:nonzero;"/><rect x="315.305" y="300.651" width="33.67" height="3.097" style="fill:#fff;fill-rule:nonzero;"/><rect x="315.305" y="306.844" width="33.67" height="3.097" style="fill:#fff;fill-rule:nonzero;"/><rect x="315.305" y="313.037" width="33.67" height="3.097" style="fill:#fff;fill-rule:nonzero;"/><rect x="315.305" y="319.23" width="33.67" height="3.097" style="fill:#fff;fill-rule:nonzero;"/><rect x="315.305" y="331.616" width="33.67" height="3.097" style="fill:#fff;fill-rule:nonzero;"/><rect x="315.305" y="337.809" width="33.67" height="3.097" style="fill:#fff;fill-rule:nonzero;"/><rect x="315.305" y="344.002" width="33.67" height="3.097" style="fill:#fff;fill-rule:nonzero;"/><rect x="315.305" y="350.195" width="33.67" height="3.097" style="fill:#fff;fill-rule:nonzero;"/><rect x="315.305" y="356.388" width="33.67" height="3.097" style="fill:#fff;fill-rule:nonzero;"/><rect x="315.305" y="362.581" width="33.67" height="3.097" style="fill:#fff;fill-rule:nonzero;"/><rect x="315.305" y="368.774" width="33.67" height="3.097" style="fill:#fff;fill-rule:nonzero;"/><rect x="315.305" y="374.967" width="33.67" height="3.097" style="fill:#fff;fill-rule:nonzero;"/><rect x="315.305" y="387.353" width="33.67" height="3.097" style="fill:#fff;fill-rule:nonzero;"/><rect x="315.305" y="393.546" width="33.67" height="3.097" style="fill:#fff;fill-rule:nonzero;"/><rect x="315.305" y="399.739" width="33.67" height="3.097" style="fill:#fff;fill-rule:nonzero;"/><path d="M123.386,295.49l-6.734,0l0,-7.225l6.734,0l0,7.225Zm0,20.643l-6.734,0l0,-7.225l6.734,0l0,7.225Zm0,10.322l-6.734,0l0,-7.225l6.734,0l0,7.225Zm0,10.322l-6.734,0l0,-7.225l6.734,0l0,7.225Zm0,10.322l-6.734,0l0,-7.226l6.734,0l0,7.226Zm0,10.321l-6.734,0l0,-7.225l6.734,0l0,7.225Zm0,10.322l-6.734,0l0,-7.225l6.734,0l0,7.225Zm0,10.322l-6.734,0l0,-7.226l6.734,0l0,7.226Zm0,20.643l-6.734,0l0,-7.225l6.734,0l0,7.225Zm-11.223,-103.217l-6.734,0l0,-7.225l6.734,0l0,7.225Zm0,10.322l-6.734,0l0,-7.225l6.734,0l0,7.225Zm0,10.321l-6.734,0l0,-7.225l6.734,0l0,7.225Zm0,10.322l-6.734,0l0,-7.225l6.734,0l0,7.225Zm0,10.322l-6.734,0l0,-7.225l6.734,0l0,7.225Zm0,10.322l-6.734,0l0,-7.226l6.734,0l0,7.226Zm0,20.643l-6.734,0l0,-7.225l6.734,0l0,7.225Zm0,10.322l-6.734,0l0,-7.226l6.734,0l0,7.226Zm0,10.321l-6.734,0l0,-7.225l6.734,0l0,7.225Zm0,10.322l-6.734,0l0,-7.225l6.734,0l0,7.225Zm-12.346,-103.217l-6.734,0l0,-7.225l6.734,0l0,7.225Zm0,20.643l-6.734,0l0,-7.225l6.734,0l0,7.225Zm0,10.322l-6.734,0l0,-7.225l6.734,0l0,7.225Zm0,10.322l-6.734,0l0,-7.225l6.734,0l0,7.225Zm0,10.322l-6.734,0l0,-7.226l6.734,0l0,7.226Zm0,10.321l-6.734,0l0,-7.225l6.734,0l0,7.225Zm0,10.322l-6.734,0l0,-7.225l6.734,0l0,7.225Zm0,10.322l-6.734,0l0,-7.226l6.734,0l0,7.226Zm0,10.321l-6.734,0l0,-7.225l6.734,0l0,7.225Zm-11.223,-92.895l-7.856,0l0,-7.225l7.856,0l0,7.225Zm0,10.322l-7.856,0l0,-7.225l7.856,0l0,7.225Zm0,10.321l-7.856,0l0,-7.225l7.856,0l0,7.225Zm0,20.644l-7.856,0l0,-7.225l7.856,0l0,7.225Zm0,10.322l-7.856,0l0,-7.226l7.856,0l0,7.226Zm0,10.321l-7.856,0l0,-7.225l7.856,0l0,7.225Zm0,10.322l-7.856,0l0,-7.225l7.856,0l0,7.225Zm0,20.643l-7.856,0l0,-7.225l7.856,0l0,7.225Zm0,10.322l-7.856,0l0,-7.225l7.856,0l0,7.225Zm23.569,-127.989l0,-12.386l-31.425,0l0,12.386l-5.612,0l0,146.568l54.994,0l0,-146.568l-17.957,0Z" style="fill:#cc6933;fill-rule:nonzero;"/><rect x="80.738" y="288.265" width="7.856" height="7.225" style="fill:#fff;fill-rule:nonzero;"/><rect x="93.083" y="288.265" width="6.734" height="7.225" style="fill:#fff;fill-rule:nonzero;"/><rect x="105.429" y="288.265" width="6.734" height="7.225" style="fill:#fff;fill-rule:nonzero;"/><rect x="116.652" y="288.265" width="6.734" height="7.225" style="fill:#fff;fill-rule:nonzero;"/><rect x="80.738" y="298.587" width="7.856" height="7.225" style="fill:#fff;fill-rule:nonzero;"/><rect x="105.429" y="298.587" width="6.734" height="7.225" style="fill:#fff;fill-rule:nonzero;"/><rect x="80.738" y="308.908" width="7.856" height="7.225" style="fill:#fff;fill-rule:nonzero;"/><rect x="93.083" y="308.908" width="6.734" height="7.225" style="fill:#fff;fill-rule:nonzero;"/><rect x="105.429" y="308.908" width="6.734" height="7.225" style="fill:#fff;fill-rule:nonzero;"/><rect x="116.652" y="308.908" width="6.734" height="7.225" style="fill:#fff;fill-rule:nonzero;"/><rect x="93.083" y="319.23" width="6.734" height="7.225" style="fill:#fff;fill-rule:nonzero;"/><rect x="105.429" y="319.23" width="6.734" height="7.225" style="fill:#fff;fill-rule:nonzero;"/><rect x="116.652" y="319.23" width="6.734" height="7.225" style="fill:#fff;fill-rule:nonzero;"/><rect x="80.738" y="329.552" width="7.856" height="7.225" style="fill:#fff;fill-rule:nonzero;"/><rect x="93.083" y="329.552" width="6.734" height="7.225" style="fill:#fff;fill-rule:nonzero;"/><rect x="105.429" y="329.552" width="6.734" height="7.225" style="fill:#fff;fill-rule:nonzero;"/><rect x="116.652" y="329.552" width="6.734" height="7.225" style="fill:#fff;fill-rule:nonzero;"/><rect x="80.738" y="339.873" width="7.856" height="7.225" style="fill:#fff;fill-rule:nonzero;"/><rect x="93.083" y="339.873" width="6.734" height="7.225" style="fill:#fff;fill-rule:nonzero;"/><rect x="105.429" y="339.873" width="6.734" height="7.225" style="fill:#fff;fill-rule:nonzero;"/><rect x="116.652" y="339.873" width="6.734" height="7.225" style="fill:#fff;fill-rule:nonzero;"/><rect x="80.738" y="350.195" width="7.856" height="7.225" style="fill:#fff;fill-rule:nonzero;"/><rect x="93.083" y="350.195" width="6.734" height="7.225" style="fill:#fff;fill-rule:nonzero;"/><rect x="116.652" y="350.195" width="6.734" height="7.225" style="fill:#fff;fill-rule:nonzero;"/><rect x="80.738" y="360.517" width="7.856" height="7.225" style="fill:#fff;fill-rule:nonzero;"/><rect x="93.083" y="360.517" width="6.734" height="7.225" style="fill:#fff;fill-rule:nonzero;"/><rect x="105.429" y="360.517" width="6.734" height="7.225" style="fill:#fff;fill-rule:nonzero;"/><rect x="116.652" y="360.517" width="6.734" height="7.225" style="fill:#fff;fill-rule:nonzero;"/><rect x="93.083" y="370.838" width="6.734" height="7.225" style="fill:#fff;fill-rule:nonzero;"/><rect x="105.429" y="370.838" width="6.734" height="7.225" style="fill:#fff;fill-rule:nonzero;"/><rect x="116.652" y="370.838" width="6.734" height="7.225" style="fill:#fff;fill-rule:nonzero;"/><rect x="80.738" y="381.16" width="7.856" height="7.225" style="fill:#fff;fill-rule:nonzero;"/><rect x="93.083" y="381.16" width="6.734" height="7.225" style="fill:#fff;fill-rule:nonzero;"/><rect x="105.429" y="381.16" width="6.734" height="7.225" style="fill:#fff;fill-rule:nonzero;"/><rect x="80.738" y="391.482" width="7.856" height="7.225" style="fill:#fff;fill-rule:nonzero;"/><rect x="105.429" y="391.482" width="6.734" height="7.225" style="fill:#fff;fill-rule:nonzero;"/><rect x="116.652" y="391.482" width="6.734" height="7.225" style="fill:#fff;fill-rule:nonzero;"/><path d="M301.837,307.876l-5.612,0l0,-10.322l5.612,0l0,10.322Zm0,15.483l-5.612,0l0,-10.322l5.612,0l0,10.322Zm0,15.482l-5.612,0l0,-10.321l5.612,0l0,10.321Zm0,15.483l-5.612,0l0,-10.322l5.612,0l0,10.322Zm0,15.482l-5.612,0l0,-10.321l5.612,0l0,10.321Zm0,15.483l-5.612,0l0,-10.322l5.612,0l0,10.322Zm0,15.482l-5.612,0l0,-10.321l5.612,0l0,10.321Zm-10.101,-92.895l-5.612,0l0,-10.322l5.612,0l0,10.322Zm0,30.965l-5.612,0l0,-10.321l5.612,0l0,10.321Zm0,15.483l-5.612,0l0,-10.322l5.612,0l0,10.322Zm0,15.482l-5.612,0l0,-10.321l5.612,0l0,10.321Zm0,15.483l-5.612,0l0,-10.322l5.612,0l0,10.322Zm0,15.482l-5.612,0l0,-10.321l5.612,0l0,10.321Zm-10.101,-92.895l-5.612,0l0,-10.322l5.612,0l0,10.322Zm0,15.483l-5.612,0l0,-10.322l5.612,0l0,10.322Zm0,15.482l-5.612,0l0,-10.321l5.612,0l0,10.321Zm0,15.483l-5.612,0l0,-10.322l5.612,0l0,10.322Zm0,15.482l-5.612,0l0,-10.321l5.612,0l0,10.321Zm0,30.965l-5.612,0l0,-10.321l5.612,0l0,10.321Zm-10.101,-92.895l-5.612,0l0,-10.322l5.612,0l0,10.322Zm0,15.483l-5.612,0l0,-10.322l5.612,0l0,10.322Zm0,30.965l-5.612,0l0,-10.322l5.612,0l0,10.322Zm0,30.965l-5.612,0l0,-10.322l5.612,0l0,10.322Zm0,15.482l-5.612,0l0,-10.321l5.612,0l0,10.321Zm-10.101,-92.895l-5.612,0l0,-10.322l5.612,0l0,10.322Zm0,15.483l-5.612,0l0,-10.322l5.612,0l0,10.322Zm0,15.482l-5.612,0l0,-10.321l5.612,0l0,10.321Zm0,15.483l-5.612,0l0,-10.322l5.612,0l0,10.322Zm0,15.482l-5.612,0l0,-10.321l5.612,0l0,10.321Zm0,15.483l-5.612,0l0,-10.322l5.612,0l0,10.322Zm0,15.482l-5.612,0l0,-10.321l5.612,0l0,10.321Zm4.489,-120.763l5.612,0l0,10.321l-5.612,0l0,-10.321Zm10.101,8.257l0,-8.257l5.612,0l0,10.321l-5.612,0l0,-2.064Zm10.101,-8.257l5.612,0l0,10.321l-5.612,0l0,-10.321Zm12.346,11.353l0,-16.514l-16.835,0l0,-20.644l-5.612,0l0,20.644l-15.712,0l0,16.514l-8.979,0l0,125.925l54.994,0l0,-125.925l-7.856,0Z" style="fill:#454c53;fill-rule:nonzero;"/><rect x="255.821" y="297.554" width="5.612" height="10.322" style="fill:#fff;fill-rule:nonzero;"/><rect x="265.922" y="297.554" width="5.612" height="10.322" style="fill:#fff;fill-rule:nonzero;"/><rect x="276.023" y="297.554" width="5.612" height="10.322" style="fill:#fff;fill-rule:nonzero;"/><rect x="286.124" y="297.554" width="5.612" height="10.322" style="fill:#fff;fill-rule:nonzero;"/><rect x="296.225" y="297.554" width="5.612" height="10.322" style="fill:#fff;fill-rule:nonzero;"/><rect x="255.821" y="313.037" width="5.612" height="10.322" style="fill:#fff;fill-rule:nonzero;"/><rect x="265.922" y="313.037" width="5.612" height="10.322" style="fill:#fff;fill-rule:nonzero;"/><rect x="276.023" y="313.037" width="5.612" height="10.322" style="fill:#fff;fill-rule:nonzero;"/><rect x="296.225" y="313.037" width="5.612" height="10.322" style="fill:#fff;fill-rule:nonzero;"/><rect x="255.821" y="328.52" width="5.612" height="10.322" style="fill:#fff;fill-rule:nonzero;"/><rect x="276.023" y="328.52" width="5.612" height="10.322" style="fill:#fff;fill-rule:nonzero;"/><rect x="286.124" y="328.52" width="5.612" height="10.322" style="fill:#fff;fill-rule:nonzero;"/><rect x="296.225" y="328.52" width="5.612" height="10.322" style="fill:#fff;fill-rule:nonzero;"/><rect x="255.821" y="344.002" width="5.612" height="10.322" style="fill:#fff;fill-rule:nonzero;"/><rect x="265.922" y="344.002" width="5.612" height="10.322" style="fill:#fff;fill-rule:nonzero;"/><rect x="276.023" y="344.002" width="5.612" height="10.322" style="fill:#fff;fill-rule:nonzero;"/><rect x="286.124" y="344.002" width="5.612" height="10.322" style="fill:#fff;fill-rule:nonzero;"/><rect x="296.225" y="344.002" width="5.612" height="10.322" style="fill:#fff;fill-rule:nonzero;"/><rect x="255.821" y="359.485" width="5.612" height="10.322" style="fill:#fff;fill-rule:nonzero;"/><rect x="276.023" y="359.485" width="5.612" height="10.322" style="fill:#fff;fill-rule:nonzero;"/><rect x="286.124" y="359.485" width="5.612" height="10.322" style="fill:#fff;fill-rule:nonzero;"/><rect x="296.225" y="359.485" width="5.612" height="10.322" style="fill:#fff;fill-rule:nonzero;"/><rect x="255.821" y="374.967" width="5.612" height="10.322" style="fill:#fff;fill-rule:nonzero;"/><rect x="265.922" y="374.967" width="5.612" height="10.322" style="fill:#fff;fill-rule:nonzero;"/><rect x="286.124" y="374.967" width="5.612" height="10.322" style="fill:#fff;fill-rule:nonzero;"/><rect x="296.225" y="374.967" width="5.612" height="10.322" style="fill:#fff;fill-rule:nonzero;"/><rect x="255.821" y="390.45" width="5.612" height="10.322" style="fill:#fff;fill-rule:nonzero;"/><rect x="265.922" y="390.45" width="5.612" height="10.322" style="fill:#fff;fill-rule:nonzero;"/><rect x="276.023" y="390.45" width="5.612" height="10.322" style="fill:#fff;fill-rule:nonzero;"/><rect x="286.124" y="390.45" width="5.612" height="10.322" style="fill:#fff;fill-rule:nonzero;"/><rect x="296.225" y="390.45" width="5.612" height="10.322" style="fill:#fff;fill-rule:nonzero;"/><rect x="265.922" y="280.008" width="5.612" height="10.322" style="fill:#fff;fill-rule:nonzero;"/><path d="M281.635,288.265l0,-8.257l-5.612,0l0,10.321l5.612,0l0,-2.064Z" style="fill:#fff;fill-rule:nonzero;"/><rect x="286.124" y="280.008" width="5.612" height="10.322" style="fill:#fff;fill-rule:nonzero;"/><rect x="411.826" y="344.002" width="40.404" height="74.316" style="fill:#6d20c9;fill-rule:nonzero;"/><path d="M15.642,335.745l-31.425,0l0,-3.097l31.425,0l0,3.097Zm0,8.257l-31.425,0l0,-3.096l31.425,0l0,3.096Zm0,8.257l-31.425,0l0,-3.096l31.425,0l0,3.096Zm0,8.258l-31.425,0l0,-3.097l31.425,0l0,3.097Zm0,8.257l-31.425,0l0,-3.096l31.425,0l0,3.096Zm0,8.257l-31.425,0l0,-3.096l31.425,0l0,3.096Zm0,8.258l-31.425,0l0,-3.097l31.425,0l0,3.097Zm0,8.257l-31.425,0l0,-3.096l31.425,0l0,3.096Zm-23.569,-66.059l0,1.033l-5.611,0l0,-1.033l-6.734,0l0,85.67l40.404,0l0,-85.67l-28.059,0Z" style="fill:#3345cc;fill-rule:nonzero;"/><rect x="-15.783" y="332.648" width="31.425" height="3.097" style="fill:#fff;fill-rule:nonzero;"/><rect x="-15.783" y="340.906" width="31.425" height="3.097" style="fill:#fff;fill-rule:nonzero;"/><rect x="-15.783" y="349.163" width="31.425" height="3.097" style="fill:#fff;fill-rule:nonzero;"/><rect x="-15.783" y="357.42" width="31.425" height="3.097" style="fill:#fff;fill-rule:nonzero;"/><rect x="-15.783" y="365.678" width="31.425" height="3.097" style="fill:#fff;fill-rule:nonzero;"/><rect x="-15.783" y="373.935" width="31.425" height="3.097" style="fill:#fff;fill-rule:nonzero;"/><rect x="-15.783" y="382.192" width="31.425" height="3.097" style="fill:#fff;fill-rule:nonzero;"/><rect x="-15.783" y="390.45" width="31.425" height="3.097" style="fill:#fff;fill-rule:nonzero;"/><path d="M393.868,340.906l-4.489,0l0,-5.161l4.489,0l0,5.161Zm0,7.225l-4.489,0l0,-5.161l4.489,0l0,5.161Zm0,7.225l-4.489,0l0,-5.161l4.489,0l0,5.161Zm0,7.225l-4.489,0l0,-5.161l4.489,0l0,5.161Zm0,7.225l-4.489,0l0,-5.161l4.489,0l0,5.161Zm0,7.225l-4.489,0l0,-5.16l4.489,0l0,5.16Zm0,7.226l-4.489,0l0,-5.161l4.489,0l0,5.161Zm0,7.225l-4.489,0l0,-5.161l4.489,0l0,5.161Zm0,7.225l-4.489,0l0,-5.161l4.489,0l0,5.161Zm0,7.225l-4.489,0l0,-5.161l4.489,0l0,5.161Zm-8.978,-65.026l-4.49,0l0,-5.161l4.49,0l0,5.161Zm0,7.225l-4.49,0l0,-5.161l4.49,0l0,5.161Zm0,7.225l-4.49,0l0,-5.161l4.49,0l0,5.161Zm0,7.225l-4.49,0l0,-5.161l4.49,0l0,5.161Zm0,7.225l-4.49,0l0,-5.161l4.49,0l0,5.161Zm0,7.225l-4.49,0l0,-5.16l4.49,0l0,5.16Zm0,7.226l-4.49,0l0,-5.161l4.49,0l0,5.161Zm0,7.225l-4.49,0l0,-5.161l4.49,0l0,5.161Zm0,7.225l-4.49,0l0,-5.161l4.49,0l0,5.161Zm0,7.225l-4.49,0l0,-5.161l4.49,0l0,5.161Zm0,-78.445l0,-8.257l-5.612,0l0,8.257l-3.367,0l0,-13.418l-5.612,0l0,13.418l-12.345,0l0,85.67l49.382,0l0,-85.67l-22.446,0Z" style="fill:#c33;fill-rule:nonzero;"/><rect x="389.379" y="335.745" width="4.489" height="5.161" style="fill:#fff;fill-rule:nonzero;"/><rect x="389.379" y="342.97" width="4.489" height="5.161" style="fill:#fff;fill-rule:nonzero;"/><rect x="389.379" y="350.195" width="4.489" height="5.161" style="fill:#fff;fill-rule:nonzero;"/><rect x="389.379" y="357.42" width="4.489" height="5.161" style="fill:#fff;fill-rule:nonzero;"/><rect x="389.379" y="364.645" width="4.489" height="5.161" style="fill:#fff;fill-rule:nonzero;"/><rect x="389.379" y="371.871" width="4.489" height="5.161" style="fill:#fff;fill-rule:nonzero;"/><rect x="389.379" y="379.096" width="4.489" height="5.161" style="fill:#fff;fill-rule:nonzero;"/><rect x="389.379" y="386.321" width="4.489" height="5.161" style="fill:#fff;fill-rule:nonzero;"/><rect x="389.379" y="393.546" width="4.489" height="5.161" style="fill:#fff;fill-rule:nonzero;"/><rect x="389.379" y="400.771" width="4.489" height="5.161" style="fill:#fff;fill-rule:nonzero;"/><rect x="380.4" y="335.745" width="4.489" height="5.161" style="fill:#fff;fill-rule:nonzero;"/><rect x="380.4" y="342.97" width="4.489" height="5.161" style="fill:#fff;fill-rule:nonzero;"/><rect x="380.4" y="350.195" width="4.489" height="5.161" style="fill:#fff;fill-rule:nonzero;"/><rect x="380.4" y="357.42" width="4.489" height="5.161" style="fill:#fff;fill-rule:nonzero;"/><rect x="380.4" y="364.645" width="4.489" height="5.161" style="fill:#fff;fill-rule:nonzero;"/><rect x="380.4" y="371.871" width="4.489" height="5.161" style="fill:#fff;fill-rule:nonzero;"/><rect x="380.4" y="379.096" width="4.489" height="5.161" style="fill:#fff;fill-rule:nonzero;"/><rect x="380.4" y="386.321" width="4.489" height="5.161" style="fill:#fff;fill-rule:nonzero;"/><rect x="380.4" y="393.546" width="4.489" height="5.161" style="fill:#fff;fill-rule:nonzero;"/><rect x="380.4" y="400.771" width="4.489" height="5.161" style="fill:#fff;fill-rule:nonzero;"/></g></g><rect x="-451.5" y="445.909" width="1317" height="290.091" style="fill:#e6ebac;"/><rect x="-439.466" y="407.993" width="1292.93" height="67.092" style="fill:#656e76;"/></g></svg>