<?xml version="1.0" encoding="UTF-8" standalone="no"?><!DOCTYPE svg PUBLIC "-//W3C//DTD SVG 1.1//EN" "http://www.w3.org/Graphics/SVG/1.1/DTD/svg11.dtd"><svg width="100%" height="100%" viewBox="0 0 1280 550" version="1.1" xmlns="http://www.w3.org/2000/svg" xmlns:xlink="http://www.w3.org/1999/xlink" xml:space="preserve" style="fill-rule:evenodd;clip-rule:evenodd;stroke-linejoin:round;stroke-miterlimit:1.41421;"><rect id="Mesa-de-trabajo1" x="0" y="0" width="1280" height="550" style="fill:#fff;"/><clipPath id="_clip1"><rect x="0" y="0" width="1280" height="550"/></clipPath><g clip-path="url(#_clip1)"><g id="hero"><rect x="-19" y="-26.301" width="1333" height="769.301" style="fill:#e0ebe8;stroke:#000;stroke-width:1px;"/><g id="fondo"><g><g opacity="0.42029"><rect x="786.627" y="329.284" width="563.94" height="6.977" style="fill:#454c53;fill-rule:nonzero;"/><rect x="1056.37" y="223.851" width="41.305" height="110.084" style="fill:#d926a5;fill-rule:nonzero;"/><rect x="1067.33" y="236.255" width="4.215" height="14.73" style="fill:#fff;fill-rule:nonzero;"/><rect x="1074.92" y="236.255" width="4.215" height="14.73" style="fill:#fff;fill-rule:nonzero;"/><rect x="1082.51" y="236.255" width="4.215" height="14.73" style="fill:#fff;fill-rule:nonzero;"/><rect x="1090.09" y="236.255" width="4.215" height="14.73" style="fill:#fff;fill-rule:nonzero;"/><rect x="1059.75" y="254.085" width="4.215" height="14.73" style="fill:#fff;fill-rule:nonzero;"/><rect x="1067.33" y="254.085" width="4.215" height="14.73" style="fill:#fff;fill-rule:nonzero;"/><rect x="1082.51" y="254.085" width="4.215" height="14.73" style="fill:#fff;fill-rule:nonzero;"/><rect x="1059.75" y="271.916" width="4.215" height="14.73" style="fill:#fff;fill-rule:nonzero;"/><rect x="1067.33" y="271.916" width="4.215" height="14.73" style="fill:#fff;fill-rule:nonzero;"/><rect x="1074.92" y="271.916" width="4.215" height="14.73" style="fill:#fff;fill-rule:nonzero;"/><rect x="1082.51" y="271.916" width="4.215" height="14.73" style="fill:#fff;fill-rule:nonzero;"/><rect x="1090.09" y="271.916" width="4.215" height="14.73" style="fill:#fff;fill-rule:nonzero;"/><rect x="1059.75" y="289.746" width="4.215" height="14.73" style="fill:#fff;fill-rule:nonzero;"/><rect x="1074.92" y="289.746" width="4.215" height="14.73" style="fill:#fff;fill-rule:nonzero;"/><rect x="1082.51" y="289.746" width="4.215" height="14.73" style="fill:#fff;fill-rule:nonzero;"/><rect x="1090.09" y="289.746" width="4.215" height="14.73" style="fill:#fff;fill-rule:nonzero;"/><rect x="1059.75" y="307.577" width="4.215" height="14.73" style="fill:#fff;fill-rule:nonzero;"/><rect x="1067.33" y="307.577" width="4.215" height="14.73" style="fill:#fff;fill-rule:nonzero;"/><rect x="1074.92" y="307.577" width="4.215" height="14.73" style="fill:#fff;fill-rule:nonzero;"/><rect x="1090.09" y="307.577" width="4.215" height="14.73" style="fill:#fff;fill-rule:nonzero;"/><rect x="932.459" y="246.333" width="32.875" height="87.602" style="fill:#3345cc;fill-rule:nonzero;"/><rect x="934.988" y="256.411" width="4.215" height="5.427" style="fill:#fff;fill-rule:nonzero;"/><rect x="947.632" y="256.411" width="3.372" height="5.427" style="fill:#fff;fill-rule:nonzero;"/><rect x="953.533" y="256.411" width="3.372" height="5.427" style="fill:#fff;fill-rule:nonzero;"/><rect x="960.277" y="256.411" width="2.529" height="5.427" style="fill:#fff;fill-rule:nonzero;"/><rect x="934.988" y="263.388" width="4.215" height="6.202" style="fill:#fff;fill-rule:nonzero;"/><rect x="941.731" y="263.388" width="3.372" height="6.202" style="fill:#fff;fill-rule:nonzero;"/><rect x="947.632" y="263.388" width="3.372" height="6.202" style="fill:#fff;fill-rule:nonzero;"/><rect x="960.277" y="263.388" width="2.529" height="6.202" style="fill:#fff;fill-rule:nonzero;"/><rect x="934.988" y="270.365" width="4.215" height="6.202" style="fill:#fff;fill-rule:nonzero;"/><rect x="947.632" y="270.365" width="3.372" height="6.202" style="fill:#fff;fill-rule:nonzero;"/><rect x="953.533" y="270.365" width="3.372" height="6.202" style="fill:#fff;fill-rule:nonzero;"/><rect x="960.277" y="270.365" width="2.529" height="6.202" style="fill:#fff;fill-rule:nonzero;"/><rect x="934.988" y="278.118" width="4.215" height="6.202" style="fill:#fff;fill-rule:nonzero;"/><rect x="941.731" y="278.118" width="3.372" height="6.202" style="fill:#fff;fill-rule:nonzero;"/><rect x="947.632" y="278.118" width="3.372" height="6.202" style="fill:#fff;fill-rule:nonzero;"/><rect x="953.533" y="278.118" width="3.372" height="6.202" style="fill:#fff;fill-rule:nonzero;"/><rect x="960.277" y="278.118" width="2.529" height="6.202" style="fill:#fff;fill-rule:nonzero;"/><rect x="934.988" y="285.095" width="4.215" height="6.202" style="fill:#fff;fill-rule:nonzero;"/><rect x="947.632" y="285.095" width="3.372" height="6.202" style="fill:#fff;fill-rule:nonzero;"/><rect x="960.277" y="285.095" width="2.529" height="6.202" style="fill:#fff;fill-rule:nonzero;"/><rect x="934.988" y="292.847" width="4.215" height="6.202" style="fill:#fff;fill-rule:nonzero;"/><rect x="947.632" y="292.847" width="3.372" height="6.202" style="fill:#fff;fill-rule:nonzero;"/><rect x="953.533" y="292.847" width="3.372" height="6.202" style="fill:#fff;fill-rule:nonzero;"/><rect x="960.277" y="292.847" width="2.529" height="6.202" style="fill:#fff;fill-rule:nonzero;"/><rect x="934.988" y="299.824" width="4.215" height="5.427" style="fill:#fff;fill-rule:nonzero;"/><rect x="941.731" y="299.824" width="3.372" height="5.427" style="fill:#fff;fill-rule:nonzero;"/><rect x="947.632" y="299.824" width="3.372" height="5.427" style="fill:#fff;fill-rule:nonzero;"/><rect x="960.277" y="299.824" width="2.529" height="5.427" style="fill:#fff;fill-rule:nonzero;"/><rect x="947.632" y="306.802" width="3.372" height="6.202" style="fill:#fff;fill-rule:nonzero;"/><rect x="953.533" y="306.802" width="3.372" height="6.202" style="fill:#fff;fill-rule:nonzero;"/><rect x="934.988" y="313.779" width="4.215" height="6.977" style="fill:#fff;fill-rule:nonzero;"/><rect x="941.731" y="313.779" width="3.372" height="6.977" style="fill:#fff;fill-rule:nonzero;"/><rect x="947.632" y="313.779" width="3.372" height="6.977" style="fill:#fff;fill-rule:nonzero;"/><rect x="953.533" y="313.779" width="3.372" height="6.977" style="fill:#fff;fill-rule:nonzero;"/><rect x="960.277" y="313.779" width="2.529" height="6.977" style="fill:#fff;fill-rule:nonzero;"/><rect x="934.988" y="321.531" width="4.215" height="6.202" style="fill:#fff;fill-rule:nonzero;"/><rect x="947.632" y="321.531" width="3.372" height="6.202" style="fill:#fff;fill-rule:nonzero;"/><rect x="960.277" y="321.531" width="2.529" height="6.202" style="fill:#fff;fill-rule:nonzero;"/><rect x="1015.07" y="234.704" width="37.09" height="99.231" style="fill:#c33;fill-rule:nonzero;"/><rect x="1025.18" y="246.333" width="3.372" height="13.179" style="fill:#fff;fill-rule:nonzero;"/><rect x="1038.67" y="246.333" width="3.372" height="13.179" style="fill:#fff;fill-rule:nonzero;"/><rect x="1045.42" y="246.333" width="3.372" height="13.179" style="fill:#fff;fill-rule:nonzero;"/><rect x="1025.18" y="262.613" width="3.372" height="13.179" style="fill:#fff;fill-rule:nonzero;"/><rect x="1031.93" y="262.613" width="3.372" height="13.179" style="fill:#fff;fill-rule:nonzero;"/><rect x="1045.42" y="262.613" width="3.372" height="13.179" style="fill:#fff;fill-rule:nonzero;"/><rect x="1025.18" y="278.118" width="3.372" height="13.179" style="fill:#fff;fill-rule:nonzero;"/><rect x="1038.67" y="278.118" width="3.372" height="13.179" style="fill:#fff;fill-rule:nonzero;"/><rect x="1045.42" y="278.118" width="3.372" height="13.179" style="fill:#fff;fill-rule:nonzero;"/><rect x="1025.18" y="294.398" width="3.372" height="13.179" style="fill:#fff;fill-rule:nonzero;"/><rect x="1031.93" y="294.398" width="3.372" height="13.179" style="fill:#fff;fill-rule:nonzero;"/><rect x="1045.42" y="294.398" width="3.372" height="13.179" style="fill:#fff;fill-rule:nonzero;"/><rect x="1031.93" y="309.903" width="3.372" height="13.954" style="fill:#fff;fill-rule:nonzero;"/><rect x="1045.42" y="309.903" width="3.372" height="13.954" style="fill:#fff;fill-rule:nonzero;"/><path d="M1178.6,220.75l-32.032,-10.853l0,124.038l32.032,0l0,-113.185Z" style="fill:#cc6933;fill-rule:nonzero;"/><rect x="1149.94" y="227.727" width="25.289" height="2.326" style="fill:#fff;fill-rule:nonzero;"/><rect x="1149.94" y="232.379" width="25.289" height="2.326" style="fill:#fff;fill-rule:nonzero;"/><rect x="1149.94" y="237.03" width="25.289" height="2.326" style="fill:#fff;fill-rule:nonzero;"/><rect x="1149.94" y="241.681" width="25.289" height="2.326" style="fill:#fff;fill-rule:nonzero;"/><rect x="1149.94" y="246.333" width="25.289" height="2.326" style="fill:#fff;fill-rule:nonzero;"/><rect x="1149.94" y="250.984" width="25.289" height="2.326" style="fill:#fff;fill-rule:nonzero;"/><rect x="1149.94" y="255.636" width="25.289" height="2.326" style="fill:#fff;fill-rule:nonzero;"/><rect x="1149.94" y="260.287" width="25.289" height="2.326" style="fill:#fff;fill-rule:nonzero;"/><rect x="1149.94" y="269.59" width="25.289" height="2.326" style="fill:#fff;fill-rule:nonzero;"/><rect x="1149.94" y="274.242" width="25.289" height="2.326" style="fill:#fff;fill-rule:nonzero;"/><rect x="1149.94" y="278.893" width="25.289" height="2.326" style="fill:#fff;fill-rule:nonzero;"/><rect x="1149.94" y="283.544" width="25.289" height="2.326" style="fill:#fff;fill-rule:nonzero;"/><rect x="1149.94" y="288.196" width="25.289" height="2.326" style="fill:#fff;fill-rule:nonzero;"/><rect x="1149.94" y="292.847" width="25.289" height="2.326" style="fill:#fff;fill-rule:nonzero;"/><rect x="1149.94" y="297.499" width="25.289" height="2.326" style="fill:#fff;fill-rule:nonzero;"/><rect x="1149.94" y="302.15" width="25.289" height="2.326" style="fill:#fff;fill-rule:nonzero;"/><rect x="1149.94" y="311.453" width="25.289" height="2.326" style="fill:#fff;fill-rule:nonzero;"/><rect x="1149.94" y="316.105" width="25.289" height="2.326" style="fill:#fff;fill-rule:nonzero;"/><rect x="1149.94" y="320.756" width="25.289" height="2.326" style="fill:#fff;fill-rule:nonzero;"/><path d="M1005.8,242.457l-5.057,0l0,-5.427l5.057,0l0,5.427Zm0,15.504l-5.057,0l0,-5.426l5.057,0l0,5.426Zm0,7.753l-5.057,0l0,-5.427l5.057,0l0,5.427Zm0,7.752l-5.057,0l0,-5.426l5.057,0l0,5.426Zm0,7.753l-5.057,0l0,-5.427l5.057,0l0,5.427Zm0,7.752l-5.057,0l0,-5.427l5.057,0l0,5.427Zm0,7.753l-5.057,0l0,-5.427l5.057,0l0,5.427Zm0,7.752l-5.057,0l0,-5.427l5.057,0l0,5.427Zm0,15.505l-5.057,0l0,-5.427l5.057,0l0,5.427Zm-8.429,-77.524l-5.058,0l0,-5.427l5.058,0l0,5.427Zm0,7.752l-5.058,0l0,-5.427l5.058,0l0,5.427Zm0,7.752l-5.058,0l0,-5.426l5.058,0l0,5.426Zm0,7.753l-5.058,0l0,-5.427l5.058,0l0,5.427Zm0,7.752l-5.058,0l0,-5.426l5.058,0l0,5.426Zm0,7.753l-5.058,0l0,-5.427l5.058,0l0,5.427Zm0,15.505l-5.058,0l0,-5.427l5.058,0l0,5.427Zm0,7.752l-5.058,0l0,-5.427l5.058,0l0,5.427Zm0,7.752l-5.058,0l0,-5.426l5.058,0l0,5.426Zm0,7.753l-5.058,0l0,-5.427l5.058,0l0,5.427Zm-9.273,-77.524l-5.057,0l0,-5.427l5.057,0l0,5.427Zm0,15.504l-5.057,0l0,-5.426l5.057,0l0,5.426Zm0,7.753l-5.057,0l0,-5.427l5.057,0l0,5.427Zm0,7.752l-5.057,0l0,-5.426l5.057,0l0,5.426Zm0,7.753l-5.057,0l0,-5.427l5.057,0l0,5.427Zm0,7.752l-5.057,0l0,-5.427l5.057,0l0,5.427Zm0,7.753l-5.057,0l0,-5.427l5.057,0l0,5.427Zm0,7.752l-5.057,0l0,-5.427l5.057,0l0,5.427Zm0,7.752l-5.057,0l0,-5.426l5.057,0l0,5.426Zm-8.429,-69.771l-5.901,0l0,-5.427l5.901,0l0,5.427Zm0,7.752l-5.901,0l0,-5.427l5.901,0l0,5.427Zm0,7.752l-5.901,0l0,-5.426l5.901,0l0,5.426Zm0,15.505l-5.901,0l0,-5.426l5.901,0l0,5.426Zm0,7.753l-5.901,0l0,-5.427l5.901,0l0,5.427Zm0,7.752l-5.901,0l0,-5.427l5.901,0l0,5.427Zm0,7.753l-5.901,0l0,-5.427l5.901,0l0,5.427Zm0,15.504l-5.901,0l0,-5.426l5.901,0l0,5.426Zm0,7.753l-5.901,0l0,-5.427l5.901,0l0,5.427Zm17.702,-96.13l0,-9.303l-23.603,0l0,9.303l-4.215,0l0,110.084l41.305,0l0,-110.084l-13.487,0Z" style="fill:#cc6933;fill-rule:nonzero;"/><rect x="973.764" y="237.03" width="5.901" height="5.427" style="fill:#fff;fill-rule:nonzero;"/><rect x="983.037" y="237.03" width="5.058" height="5.427" style="fill:#fff;fill-rule:nonzero;"/><rect x="992.309" y="237.03" width="5.058" height="5.427" style="fill:#fff;fill-rule:nonzero;"/><rect x="1000.74" y="237.03" width="5.058" height="5.427" style="fill:#fff;fill-rule:nonzero;"/><rect x="973.764" y="244.782" width="5.901" height="5.427" style="fill:#fff;fill-rule:nonzero;"/><rect x="992.309" y="244.782" width="5.058" height="5.427" style="fill:#fff;fill-rule:nonzero;"/><rect x="973.764" y="252.535" width="5.901" height="5.427" style="fill:#fff;fill-rule:nonzero;"/><rect x="983.037" y="252.535" width="5.058" height="5.427" style="fill:#fff;fill-rule:nonzero;"/><rect x="992.309" y="252.535" width="5.058" height="5.427" style="fill:#fff;fill-rule:nonzero;"/><rect x="1000.74" y="252.535" width="5.058" height="5.427" style="fill:#fff;fill-rule:nonzero;"/><rect x="983.037" y="260.287" width="5.058" height="5.427" style="fill:#fff;fill-rule:nonzero;"/><rect x="992.309" y="260.287" width="5.058" height="5.427" style="fill:#fff;fill-rule:nonzero;"/><rect x="1000.74" y="260.287" width="5.058" height="5.427" style="fill:#fff;fill-rule:nonzero;"/><rect x="973.764" y="268.04" width="5.901" height="5.427" style="fill:#fff;fill-rule:nonzero;"/><rect x="983.037" y="268.04" width="5.058" height="5.427" style="fill:#fff;fill-rule:nonzero;"/><rect x="992.309" y="268.04" width="5.058" height="5.427" style="fill:#fff;fill-rule:nonzero;"/><rect x="1000.74" y="268.04" width="5.058" height="5.427" style="fill:#fff;fill-rule:nonzero;"/><rect x="973.764" y="275.792" width="5.901" height="5.427" style="fill:#fff;fill-rule:nonzero;"/><rect x="983.037" y="275.792" width="5.058" height="5.427" style="fill:#fff;fill-rule:nonzero;"/><rect x="992.309" y="275.792" width="5.058" height="5.427" style="fill:#fff;fill-rule:nonzero;"/><rect x="1000.74" y="275.792" width="5.058" height="5.427" style="fill:#fff;fill-rule:nonzero;"/><rect x="973.764" y="283.544" width="5.901" height="5.427" style="fill:#fff;fill-rule:nonzero;"/><rect x="983.037" y="283.544" width="5.058" height="5.427" style="fill:#fff;fill-rule:nonzero;"/><rect x="1000.74" y="283.544" width="5.058" height="5.427" style="fill:#fff;fill-rule:nonzero;"/><rect x="973.764" y="291.297" width="5.901" height="5.427" style="fill:#fff;fill-rule:nonzero;"/><rect x="983.037" y="291.297" width="5.058" height="5.427" style="fill:#fff;fill-rule:nonzero;"/><rect x="992.309" y="291.297" width="5.058" height="5.427" style="fill:#fff;fill-rule:nonzero;"/><rect x="1000.74" y="291.297" width="5.058" height="5.427" style="fill:#fff;fill-rule:nonzero;"/><rect x="983.037" y="299.049" width="5.058" height="5.427" style="fill:#fff;fill-rule:nonzero;"/><rect x="992.309" y="299.049" width="5.058" height="5.427" style="fill:#fff;fill-rule:nonzero;"/><rect x="1000.74" y="299.049" width="5.058" height="5.427" style="fill:#fff;fill-rule:nonzero;"/><rect x="973.764" y="306.802" width="5.901" height="5.427" style="fill:#fff;fill-rule:nonzero;"/><rect x="983.037" y="306.802" width="5.058" height="5.427" style="fill:#fff;fill-rule:nonzero;"/><rect x="992.309" y="306.802" width="5.058" height="5.427" style="fill:#fff;fill-rule:nonzero;"/><rect x="973.764" y="314.554" width="5.901" height="5.427" style="fill:#fff;fill-rule:nonzero;"/><rect x="992.309" y="314.554" width="5.058" height="5.427" style="fill:#fff;fill-rule:nonzero;"/><rect x="1000.74" y="314.554" width="5.058" height="5.427" style="fill:#fff;fill-rule:nonzero;"/><path d="M1139.83,251.76l-4.215,0l0,-7.753l4.215,0l0,7.753Zm0,11.628l-4.215,0l0,-7.752l4.215,0l0,7.752Zm0,11.629l-4.215,0l0,-7.753l4.215,0l0,7.753Zm0,11.628l-4.215,0l0,-7.752l4.215,0l0,7.752Zm0,11.629l-4.215,0l0,-7.752l4.215,0l0,7.752Zm0,11.629l-4.215,0l0,-7.753l4.215,0l0,7.753Zm0,11.628l-4.215,0l0,-7.752l4.215,0l0,7.752Zm-7.586,-69.771l-4.215,0l0,-7.753l4.215,0l0,7.753Zm0,23.257l-4.215,0l0,-7.753l4.215,0l0,7.753Zm0,11.628l-4.215,0l0,-7.752l4.215,0l0,7.752Zm0,11.629l-4.215,0l0,-7.752l4.215,0l0,7.752Zm0,11.629l-4.215,0l0,-7.753l4.215,0l0,7.753Zm0,11.628l-4.215,0l0,-7.752l4.215,0l0,7.752Zm-7.587,-69.771l-4.215,0l0,-7.753l4.215,0l0,7.753Zm0,11.628l-4.215,0l0,-7.752l4.215,0l0,7.752Zm0,11.629l-4.215,0l0,-7.753l4.215,0l0,7.753Zm0,11.628l-4.215,0l0,-7.752l4.215,0l0,7.752Zm0,11.629l-4.215,0l0,-7.752l4.215,0l0,7.752Zm0,23.257l-4.215,0l0,-7.752l4.215,0l0,7.752Zm-7.587,-69.771l-4.215,0l0,-7.753l4.215,0l0,7.753Zm0,11.628l-4.215,0l0,-7.752l4.215,0l0,7.752Zm0,23.257l-4.215,0l0,-7.752l4.215,0l0,7.752Zm0,23.258l-4.215,0l0,-7.753l4.215,0l0,7.753Zm0,11.628l-4.215,0l0,-7.752l4.215,0l0,7.752Zm-7.586,-69.771l-4.215,0l0,-7.753l4.215,0l0,7.753Zm0,11.628l-4.215,0l0,-7.752l4.215,0l0,7.752Zm0,11.629l-4.215,0l0,-7.753l4.215,0l0,7.753Zm0,11.628l-4.215,0l0,-7.752l4.215,0l0,7.752Zm0,11.629l-4.215,0l0,-7.752l4.215,0l0,7.752Zm0,11.629l-4.215,0l0,-7.753l4.215,0l0,7.753Zm0,11.628l-4.215,0l0,-7.752l4.215,0l0,7.752Zm3.371,-90.703l4.215,0l0,7.752l-4.215,0l0,-7.752Zm7.587,6.202l0,-6.202l4.215,0l0,7.752l-4.215,0l0,-1.55Zm7.587,-6.202l4.215,0l0,7.752l-4.215,0l0,-7.752Zm9.272,8.528l0,-12.404l-12.644,0l0,-15.505l-4.215,0l0,15.505l-11.801,0l0,12.404l-6.744,0l0,94.579l41.305,0l0,-94.579l-5.901,0Z" style="fill:#454c53;fill-rule:nonzero;"/><rect x="1105.27" y="244.007" width="4.215" height="7.752" style="fill:#fff;fill-rule:nonzero;"/><rect x="1112.85" y="244.007" width="4.215" height="7.752" style="fill:#fff;fill-rule:nonzero;"/><rect x="1120.44" y="244.007" width="4.215" height="7.752" style="fill:#fff;fill-rule:nonzero;"/><rect x="1128.03" y="244.007" width="4.215" height="7.752" style="fill:#fff;fill-rule:nonzero;"/><rect x="1135.61" y="244.007" width="4.215" height="7.752" style="fill:#fff;fill-rule:nonzero;"/><rect x="1105.27" y="255.636" width="4.215" height="7.752" style="fill:#fff;fill-rule:nonzero;"/><rect x="1112.85" y="255.636" width="4.215" height="7.752" style="fill:#fff;fill-rule:nonzero;"/><rect x="1120.44" y="255.636" width="4.215" height="7.752" style="fill:#fff;fill-rule:nonzero;"/><rect x="1135.61" y="255.636" width="4.215" height="7.752" style="fill:#fff;fill-rule:nonzero;"/><rect x="1105.27" y="267.264" width="4.215" height="7.752" style="fill:#fff;fill-rule:nonzero;"/><rect x="1120.44" y="267.264" width="4.215" height="7.752" style="fill:#fff;fill-rule:nonzero;"/><rect x="1128.03" y="267.264" width="4.215" height="7.752" style="fill:#fff;fill-rule:nonzero;"/><rect x="1135.61" y="267.264" width="4.215" height="7.752" style="fill:#fff;fill-rule:nonzero;"/><rect x="1105.27" y="278.893" width="4.215" height="7.752" style="fill:#fff;fill-rule:nonzero;"/><rect x="1112.85" y="278.893" width="4.215" height="7.752" style="fill:#fff;fill-rule:nonzero;"/><rect x="1120.44" y="278.893" width="4.215" height="7.752" style="fill:#fff;fill-rule:nonzero;"/><rect x="1128.03" y="278.893" width="4.215" height="7.752" style="fill:#fff;fill-rule:nonzero;"/><rect x="1135.61" y="278.893" width="4.215" height="7.752" style="fill:#fff;fill-rule:nonzero;"/><rect x="1105.27" y="290.522" width="4.215" height="7.752" style="fill:#fff;fill-rule:nonzero;"/><rect x="1120.44" y="290.522" width="4.215" height="7.752" style="fill:#fff;fill-rule:nonzero;"/><rect x="1128.03" y="290.522" width="4.215" height="7.752" style="fill:#fff;fill-rule:nonzero;"/><rect x="1135.61" y="290.522" width="4.215" height="7.752" style="fill:#fff;fill-rule:nonzero;"/><rect x="1105.27" y="302.15" width="4.215" height="7.752" style="fill:#fff;fill-rule:nonzero;"/><rect x="1112.85" y="302.15" width="4.215" height="7.752" style="fill:#fff;fill-rule:nonzero;"/><rect x="1128.03" y="302.15" width="4.215" height="7.752" style="fill:#fff;fill-rule:nonzero;"/><rect x="1135.61" y="302.15" width="4.215" height="7.752" style="fill:#fff;fill-rule:nonzero;"/><rect x="1105.27" y="313.779" width="4.215" height="7.752" style="fill:#fff;fill-rule:nonzero;"/><rect x="1112.85" y="313.779" width="4.215" height="7.752" style="fill:#fff;fill-rule:nonzero;"/><rect x="1120.44" y="313.779" width="4.215" height="7.752" style="fill:#fff;fill-rule:nonzero;"/><rect x="1128.03" y="313.779" width="4.215" height="7.752" style="fill:#fff;fill-rule:nonzero;"/><rect x="1135.61" y="313.779" width="4.215" height="7.752" style="fill:#fff;fill-rule:nonzero;"/><rect x="1112.85" y="230.828" width="4.215" height="7.752" style="fill:#fff;fill-rule:nonzero;"/><path d="M1124.65,237.03l0,-6.202l-4.215,0l0,7.752l4.215,0l0,-1.55Z" style="fill:#fff;fill-rule:nonzero;"/><rect x="1128.03" y="230.828" width="4.215" height="7.752" style="fill:#fff;fill-rule:nonzero;"/><rect x="1222.44" y="278.893" width="30.347" height="55.817" style="fill:#6d20c9;fill-rule:nonzero;"/><rect x="1225.81" y="282.769" width="10.116" height="2.326" style="fill:#fff;fill-rule:nonzero;"/><rect x="1239.93" y="282.769" width="9.483" height="2.326" style="fill:#fff;fill-rule:nonzero;"/><rect x="1225.81" y="288.971" width="10.116" height="2.326" style="fill:#fff;fill-rule:nonzero;"/><rect x="1239.93" y="288.971" width="9.483" height="2.326" style="fill:#fff;fill-rule:nonzero;"/><rect x="1225.81" y="295.173" width="10.116" height="2.326" style="fill:#fff;fill-rule:nonzero;"/><rect x="1239.93" y="295.173" width="9.483" height="2.326" style="fill:#fff;fill-rule:nonzero;"/><rect x="1225.81" y="301.375" width="10.116" height="2.326" style="fill:#fff;fill-rule:nonzero;"/><rect x="1239.93" y="301.375" width="9.483" height="2.326" style="fill:#fff;fill-rule:nonzero;"/><rect x="1239.93" y="307.577" width="9.483" height="2.326" style="fill:#fff;fill-rule:nonzero;"/><rect x="1225.81" y="307.577" width="10.116" height="2.326" style="fill:#fff;fill-rule:nonzero;"/><rect x="1225.81" y="313.779" width="10.116" height="2.326" style="fill:#fff;fill-rule:nonzero;"/><rect x="1239.93" y="313.779" width="9.483" height="2.326" style="fill:#fff;fill-rule:nonzero;"/><rect x="1225.81" y="319.981" width="10.116" height="2.326" style="fill:#fff;fill-rule:nonzero;"/><rect x="1239.93" y="319.981" width="9.483" height="2.326" style="fill:#fff;fill-rule:nonzero;"/><rect x="864.179" y="278.893" width="30.347" height="55.817" style="fill:#d926a5;fill-rule:nonzero;"/><rect x="868.079" y="282.769" width="6.051" height="2.326" style="fill:#fff;fill-rule:nonzero;"/><rect x="876.517" y="282.769" width="5.672" height="2.326" style="fill:#fff;fill-rule:nonzero;"/><rect x="876.517" y="288.971" width="5.672" height="2.326" style="fill:#fff;fill-rule:nonzero;"/><rect x="868.079" y="295.173" width="6.051" height="2.326" style="fill:#fff;fill-rule:nonzero;"/><rect x="876.517" y="295.173" width="5.672" height="2.326" style="fill:#fff;fill-rule:nonzero;"/><rect x="868.079" y="301.375" width="6.051" height="2.326" style="fill:#fff;fill-rule:nonzero;"/><rect x="876.517" y="301.375" width="5.672" height="2.326" style="fill:#fff;fill-rule:nonzero;"/><rect x="876.517" y="307.577" width="5.672" height="2.326" style="fill:#fff;fill-rule:nonzero;"/><rect x="868.079" y="313.779" width="6.051" height="2.326" style="fill:#fff;fill-rule:nonzero;"/><rect x="876.517" y="313.779" width="5.672" height="2.326" style="fill:#fff;fill-rule:nonzero;"/><rect x="868.079" y="319.981" width="6.051" height="2.326" style="fill:#fff;fill-rule:nonzero;"/><rect x="884.095" y="282.769" width="6.051" height="2.326" style="fill:#fff;fill-rule:nonzero;"/><rect x="884.095" y="288.971" width="6.051" height="2.326" style="fill:#fff;fill-rule:nonzero;"/><rect x="884.095" y="301.375" width="6.051" height="2.326" style="fill:#fff;fill-rule:nonzero;"/><rect x="884.095" y="307.577" width="6.051" height="2.326" style="fill:#fff;fill-rule:nonzero;"/><rect x="884.095" y="313.779" width="6.051" height="2.326" style="fill:#fff;fill-rule:nonzero;"/><rect x="876.517" y="319.981" width="5.672" height="2.326" style="fill:#fff;fill-rule:nonzero;"/><path d="M924.872,272.691l-23.603,0l0,-2.326l23.603,0l0,2.326Zm0,6.202l-23.603,0l0,-2.326l23.603,0l0,2.326Zm0,6.202l-23.603,0l0,-2.326l23.603,0l0,2.326Zm0,6.202l-23.603,0l0,-2.326l23.603,0l0,2.326Zm0,6.202l-23.603,0l0,-2.326l23.603,0l0,2.326Zm0,6.202l-23.603,0l0,-2.326l23.603,0l0,2.326Zm0,6.202l-23.603,0l0,-2.326l23.603,0l0,2.326Zm0,6.202l-23.603,0l0,-2.326l23.603,0l0,2.326Zm-17.702,-49.616l0,0.775l-4.215,0l0,-0.775l-5.057,0l0,64.345l30.346,0l0,-64.345l-21.074,0Z" style="fill:#3345cc;fill-rule:nonzero;"/><rect x="901.269" y="270.365" width="23.603" height="2.326" style="fill:#fff;fill-rule:nonzero;"/><rect x="901.269" y="276.567" width="23.603" height="2.326" style="fill:#fff;fill-rule:nonzero;"/><rect x="901.269" y="282.769" width="23.603" height="2.326" style="fill:#fff;fill-rule:nonzero;"/><rect x="901.269" y="288.971" width="23.603" height="2.326" style="fill:#fff;fill-rule:nonzero;"/><rect x="901.269" y="295.173" width="23.603" height="2.326" style="fill:#fff;fill-rule:nonzero;"/><rect x="901.269" y="301.375" width="23.603" height="2.326" style="fill:#fff;fill-rule:nonzero;"/><rect x="901.269" y="307.577" width="23.603" height="2.326" style="fill:#fff;fill-rule:nonzero;"/><rect x="901.269" y="313.779" width="23.603" height="2.326" style="fill:#fff;fill-rule:nonzero;"/><path d="M907.17,267.264l0,-0.775l0,-6.977l-4.215,0l0,7.752l4.215,0Z" style="fill:#454c53;fill-rule:nonzero;"/><path d="M1208.95,276.567l-3.372,0l0,-3.876l3.372,0l0,3.876Zm0,5.427l-3.372,0l0,-3.876l3.372,0l0,3.876Zm0,5.427l-3.372,0l0,-3.877l3.372,0l0,3.877Zm0,5.426l-3.372,0l0,-3.876l3.372,0l0,3.876Zm0,5.427l-3.372,0l0,-3.876l3.372,0l0,3.876Zm0,5.427l-3.372,0l0,-3.877l3.372,0l0,3.877Zm0,5.426l-3.372,0l0,-3.876l3.372,0l0,3.876Zm0,5.427l-3.372,0l0,-3.876l3.372,0l0,3.876Zm0,5.427l-3.372,0l0,-3.876l3.372,0l0,3.876Zm0,5.426l-3.372,0l0,-3.876l3.372,0l0,3.876Zm-6.744,-48.84l-3.372,0l0,-3.876l3.372,0l0,3.876Zm0,5.427l-3.372,0l0,-3.876l3.372,0l0,3.876Zm0,5.427l-3.372,0l0,-3.877l3.372,0l0,3.877Zm0,5.426l-3.372,0l0,-3.876l3.372,0l0,3.876Zm0,5.427l-3.372,0l0,-3.876l3.372,0l0,3.876Zm0,5.427l-3.372,0l0,-3.877l3.372,0l0,3.877Zm0,5.426l-3.372,0l0,-3.876l3.372,0l0,3.876Zm0,5.427l-3.372,0l0,-3.876l3.372,0l0,3.876Zm0,5.427l-3.372,0l0,-3.876l3.372,0l0,3.876Zm0,5.426l-3.372,0l0,-3.876l3.372,0l0,3.876Zm0,-58.918l0,-6.202l-4.215,0l0,6.202l-2.528,0l0,-10.078l-4.215,0l0,10.078l-9.273,0l0,64.345l37.09,0l0,-64.345l-16.859,0Z" style="fill:#c33;fill-rule:nonzero;"/><rect x="1205.58" y="272.691" width="3.372" height="3.876" style="fill:#fff;fill-rule:nonzero;"/><rect x="1205.58" y="278.118" width="3.372" height="3.876" style="fill:#fff;fill-rule:nonzero;"/><rect x="1205.58" y="283.544" width="3.372" height="3.876" style="fill:#fff;fill-rule:nonzero;"/><rect x="1205.58" y="288.971" width="3.372" height="3.876" style="fill:#fff;fill-rule:nonzero;"/><rect x="1205.58" y="294.398" width="3.372" height="3.876" style="fill:#fff;fill-rule:nonzero;"/><rect x="1205.58" y="299.824" width="3.372" height="3.876" style="fill:#fff;fill-rule:nonzero;"/><rect x="1205.58" y="305.251" width="3.372" height="3.876" style="fill:#fff;fill-rule:nonzero;"/><rect x="1205.58" y="310.678" width="3.372" height="3.876" style="fill:#fff;fill-rule:nonzero;"/><rect x="1205.58" y="316.105" width="3.372" height="3.876" style="fill:#fff;fill-rule:nonzero;"/><rect x="1205.58" y="321.531" width="3.372" height="3.876" style="fill:#fff;fill-rule:nonzero;"/><rect x="1198.83" y="272.691" width="3.372" height="3.876" style="fill:#fff;fill-rule:nonzero;"/><rect x="1198.83" y="278.118" width="3.372" height="3.876" style="fill:#fff;fill-rule:nonzero;"/><rect x="1198.83" y="283.544" width="3.372" height="3.876" style="fill:#fff;fill-rule:nonzero;"/><rect x="1198.83" y="288.971" width="3.372" height="3.876" style="fill:#fff;fill-rule:nonzero;"/><rect x="1198.83" y="294.398" width="3.372" height="3.876" style="fill:#fff;fill-rule:nonzero;"/><rect x="1198.83" y="299.824" width="3.372" height="3.876" style="fill:#fff;fill-rule:nonzero;"/><rect x="1198.83" y="305.251" width="3.372" height="3.876" style="fill:#fff;fill-rule:nonzero;"/><rect x="1198.83" y="310.678" width="3.372" height="3.876" style="fill:#fff;fill-rule:nonzero;"/><rect x="1198.83" y="316.105" width="3.372" height="3.876" style="fill:#fff;fill-rule:nonzero;"/><rect x="1198.83" y="321.531" width="3.372" height="3.876" style="fill:#fff;fill-rule:nonzero;"/></g></g><g><g opacity="0.34058"><rect x="-50.433" y="328.444" width="563.94" height="6.977" style="fill:#454c53;fill-rule:nonzero;"/><rect x="219.315" y="223.011" width="41.305" height="110.084" style="fill:#d926a5;fill-rule:nonzero;"/><rect x="230.273" y="235.415" width="4.215" height="14.73" style="fill:#fff;fill-rule:nonzero;"/><rect x="237.86" y="235.415" width="4.215" height="14.73" style="fill:#fff;fill-rule:nonzero;"/><rect x="245.446" y="235.415" width="4.215" height="14.73" style="fill:#fff;fill-rule:nonzero;"/><rect x="253.033" y="235.415" width="4.215" height="14.73" style="fill:#fff;fill-rule:nonzero;"/><rect x="222.686" y="253.246" width="4.215" height="14.73" style="fill:#fff;fill-rule:nonzero;"/><rect x="230.273" y="253.246" width="4.215" height="14.73" style="fill:#fff;fill-rule:nonzero;"/><rect x="245.446" y="253.246" width="4.215" height="14.73" style="fill:#fff;fill-rule:nonzero;"/><rect x="222.686" y="271.076" width="4.215" height="14.73" style="fill:#fff;fill-rule:nonzero;"/><rect x="230.273" y="271.076" width="4.215" height="14.73" style="fill:#fff;fill-rule:nonzero;"/><rect x="237.86" y="271.076" width="4.215" height="14.73" style="fill:#fff;fill-rule:nonzero;"/><rect x="245.446" y="271.076" width="4.215" height="14.73" style="fill:#fff;fill-rule:nonzero;"/><rect x="253.033" y="271.076" width="4.215" height="14.73" style="fill:#fff;fill-rule:nonzero;"/><rect x="222.686" y="288.907" width="4.215" height="14.73" style="fill:#fff;fill-rule:nonzero;"/><rect x="237.86" y="288.907" width="4.215" height="14.73" style="fill:#fff;fill-rule:nonzero;"/><rect x="245.446" y="288.907" width="4.215" height="14.73" style="fill:#fff;fill-rule:nonzero;"/><rect x="253.033" y="288.907" width="4.215" height="14.73" style="fill:#fff;fill-rule:nonzero;"/><rect x="222.686" y="306.737" width="4.215" height="14.73" style="fill:#fff;fill-rule:nonzero;"/><rect x="230.273" y="306.737" width="4.215" height="14.73" style="fill:#fff;fill-rule:nonzero;"/><rect x="237.86" y="306.737" width="4.215" height="14.73" style="fill:#fff;fill-rule:nonzero;"/><rect x="253.033" y="306.737" width="4.215" height="14.73" style="fill:#fff;fill-rule:nonzero;"/><rect x="95.399" y="245.493" width="32.875" height="87.602" style="fill:#3345cc;fill-rule:nonzero;"/><rect x="97.928" y="255.571" width="4.215" height="5.427" style="fill:#fff;fill-rule:nonzero;"/><rect x="110.573" y="255.571" width="3.372" height="5.427" style="fill:#fff;fill-rule:nonzero;"/><rect x="116.473" y="255.571" width="3.372" height="5.427" style="fill:#fff;fill-rule:nonzero;"/><rect x="123.217" y="255.571" width="2.529" height="5.427" style="fill:#fff;fill-rule:nonzero;"/><rect x="97.928" y="262.549" width="4.215" height="6.202" style="fill:#fff;fill-rule:nonzero;"/><rect x="104.672" y="262.549" width="3.372" height="6.202" style="fill:#fff;fill-rule:nonzero;"/><rect x="110.573" y="262.549" width="3.372" height="6.202" style="fill:#fff;fill-rule:nonzero;"/><rect x="123.217" y="262.549" width="2.529" height="6.202" style="fill:#fff;fill-rule:nonzero;"/><rect x="97.928" y="269.526" width="4.215" height="6.202" style="fill:#fff;fill-rule:nonzero;"/><rect x="110.573" y="269.526" width="3.372" height="6.202" style="fill:#fff;fill-rule:nonzero;"/><rect x="116.473" y="269.526" width="3.372" height="6.202" style="fill:#fff;fill-rule:nonzero;"/><rect x="123.217" y="269.526" width="2.529" height="6.202" style="fill:#fff;fill-rule:nonzero;"/><rect x="97.928" y="277.278" width="4.215" height="6.202" style="fill:#fff;fill-rule:nonzero;"/><rect x="104.672" y="277.278" width="3.372" height="6.202" style="fill:#fff;fill-rule:nonzero;"/><rect x="110.573" y="277.278" width="3.372" height="6.202" style="fill:#fff;fill-rule:nonzero;"/><rect x="116.473" y="277.278" width="3.372" height="6.202" style="fill:#fff;fill-rule:nonzero;"/><rect x="123.217" y="277.278" width="2.529" height="6.202" style="fill:#fff;fill-rule:nonzero;"/><rect x="97.928" y="284.255" width="4.215" height="6.202" style="fill:#fff;fill-rule:nonzero;"/><rect x="110.573" y="284.255" width="3.372" height="6.202" style="fill:#fff;fill-rule:nonzero;"/><rect x="123.217" y="284.255" width="2.529" height="6.202" style="fill:#fff;fill-rule:nonzero;"/><rect x="97.928" y="292.008" width="4.215" height="6.202" style="fill:#fff;fill-rule:nonzero;"/><rect x="110.573" y="292.008" width="3.372" height="6.202" style="fill:#fff;fill-rule:nonzero;"/><rect x="116.473" y="292.008" width="3.372" height="6.202" style="fill:#fff;fill-rule:nonzero;"/><rect x="123.217" y="292.008" width="2.529" height="6.202" style="fill:#fff;fill-rule:nonzero;"/><rect x="97.928" y="298.985" width="4.215" height="5.427" style="fill:#fff;fill-rule:nonzero;"/><rect x="104.672" y="298.985" width="3.372" height="5.427" style="fill:#fff;fill-rule:nonzero;"/><rect x="110.573" y="298.985" width="3.372" height="5.427" style="fill:#fff;fill-rule:nonzero;"/><rect x="123.217" y="298.985" width="2.529" height="5.427" style="fill:#fff;fill-rule:nonzero;"/><rect x="110.573" y="305.962" width="3.372" height="6.202" style="fill:#fff;fill-rule:nonzero;"/><rect x="116.473" y="305.962" width="3.372" height="6.202" style="fill:#fff;fill-rule:nonzero;"/><rect x="97.928" y="312.939" width="4.215" height="6.977" style="fill:#fff;fill-rule:nonzero;"/><rect x="104.672" y="312.939" width="3.372" height="6.977" style="fill:#fff;fill-rule:nonzero;"/><rect x="110.573" y="312.939" width="3.372" height="6.977" style="fill:#fff;fill-rule:nonzero;"/><rect x="116.473" y="312.939" width="3.372" height="6.977" style="fill:#fff;fill-rule:nonzero;"/><rect x="123.217" y="312.939" width="2.529" height="6.977" style="fill:#fff;fill-rule:nonzero;"/><rect x="97.928" y="320.692" width="4.215" height="6.202" style="fill:#fff;fill-rule:nonzero;"/><rect x="110.573" y="320.692" width="3.372" height="6.202" style="fill:#fff;fill-rule:nonzero;"/><rect x="123.217" y="320.692" width="2.529" height="6.202" style="fill:#fff;fill-rule:nonzero;"/><rect x="178.009" y="233.865" width="37.09" height="99.231" style="fill:#c33;fill-rule:nonzero;"/><rect x="188.125" y="245.493" width="3.372" height="13.179" style="fill:#fff;fill-rule:nonzero;"/><rect x="201.612" y="245.493" width="3.372" height="13.179" style="fill:#fff;fill-rule:nonzero;"/><rect x="208.356" y="245.493" width="3.372" height="13.179" style="fill:#fff;fill-rule:nonzero;"/><rect x="188.125" y="261.773" width="3.372" height="13.179" style="fill:#fff;fill-rule:nonzero;"/><rect x="194.869" y="261.773" width="3.372" height="13.179" style="fill:#fff;fill-rule:nonzero;"/><rect x="208.356" y="261.773" width="3.372" height="13.179" style="fill:#fff;fill-rule:nonzero;"/><rect x="188.125" y="277.278" width="3.372" height="13.179" style="fill:#fff;fill-rule:nonzero;"/><rect x="201.612" y="277.278" width="3.372" height="13.179" style="fill:#fff;fill-rule:nonzero;"/><rect x="208.356" y="277.278" width="3.372" height="13.179" style="fill:#fff;fill-rule:nonzero;"/><rect x="188.125" y="293.558" width="3.372" height="13.179" style="fill:#fff;fill-rule:nonzero;"/><rect x="194.869" y="293.558" width="3.372" height="13.179" style="fill:#fff;fill-rule:nonzero;"/><rect x="208.356" y="293.558" width="3.372" height="13.179" style="fill:#fff;fill-rule:nonzero;"/><rect x="194.869" y="309.063" width="3.372" height="13.954" style="fill:#fff;fill-rule:nonzero;"/><rect x="208.356" y="309.063" width="3.372" height="13.954" style="fill:#fff;fill-rule:nonzero;"/><path d="M341.544,219.91l-32.033,-10.853l0,124.038l32.033,0l0,-113.185Z" style="fill:#cc6933;fill-rule:nonzero;"/><rect x="312.883" y="226.887" width="25.289" height="2.326" style="fill:#fff;fill-rule:nonzero;"/><rect x="312.883" y="231.539" width="25.289" height="2.326" style="fill:#fff;fill-rule:nonzero;"/><rect x="312.883" y="236.19" width="25.289" height="2.326" style="fill:#fff;fill-rule:nonzero;"/><rect x="312.883" y="240.842" width="25.289" height="2.326" style="fill:#fff;fill-rule:nonzero;"/><rect x="312.883" y="245.493" width="25.289" height="2.326" style="fill:#fff;fill-rule:nonzero;"/><rect x="312.883" y="250.145" width="25.289" height="2.326" style="fill:#fff;fill-rule:nonzero;"/><rect x="312.883" y="254.796" width="25.289" height="2.326" style="fill:#fff;fill-rule:nonzero;"/><rect x="312.883" y="259.448" width="25.289" height="2.326" style="fill:#fff;fill-rule:nonzero;"/><rect x="312.883" y="268.75" width="25.289" height="2.326" style="fill:#fff;fill-rule:nonzero;"/><rect x="312.883" y="273.402" width="25.289" height="2.326" style="fill:#fff;fill-rule:nonzero;"/><rect x="312.883" y="278.053" width="25.289" height="2.326" style="fill:#fff;fill-rule:nonzero;"/><rect x="312.883" y="282.705" width="25.289" height="2.326" style="fill:#fff;fill-rule:nonzero;"/><rect x="312.883" y="287.356" width="25.289" height="2.326" style="fill:#fff;fill-rule:nonzero;"/><rect x="312.883" y="292.008" width="25.289" height="2.326" style="fill:#fff;fill-rule:nonzero;"/><rect x="312.883" y="296.659" width="25.289" height="2.326" style="fill:#fff;fill-rule:nonzero;"/><rect x="312.883" y="301.311" width="25.289" height="2.326" style="fill:#fff;fill-rule:nonzero;"/><rect x="312.883" y="310.613" width="25.289" height="2.326" style="fill:#fff;fill-rule:nonzero;"/><rect x="312.883" y="315.265" width="25.289" height="2.326" style="fill:#fff;fill-rule:nonzero;"/><rect x="312.883" y="319.916" width="25.289" height="2.326" style="fill:#fff;fill-rule:nonzero;"/><path d="M168.737,241.617l-5.058,0l0,-5.427l5.058,0l0,5.427Zm0,15.505l-5.058,0l0,-5.427l5.058,0l0,5.427Zm0,7.752l-5.058,0l0,-5.426l5.058,0l0,5.426Zm0,7.753l-5.058,0l0,-5.427l5.058,0l0,5.427Zm0,7.752l-5.058,0l0,-5.427l5.058,0l0,5.427Zm0,7.752l-5.058,0l0,-5.426l5.058,0l0,5.426Zm0,7.753l-5.058,0l0,-5.427l5.058,0l0,5.427Zm0,7.752l-5.058,0l0,-5.426l5.058,0l0,5.426Zm0,15.505l-5.058,0l0,-5.427l5.058,0l0,5.427Zm-8.43,-77.524l-5.057,0l0,-5.427l5.057,0l0,5.427Zm0,7.752l-5.057,0l0,-5.426l5.057,0l0,5.426Zm0,7.753l-5.057,0l0,-5.427l5.057,0l0,5.427Zm0,7.752l-5.057,0l0,-5.426l5.057,0l0,5.426Zm0,7.753l-5.057,0l0,-5.427l5.057,0l0,5.427Zm0,7.752l-5.057,0l0,-5.427l5.057,0l0,5.427Zm0,15.505l-5.057,0l0,-5.427l5.057,0l0,5.427Zm0,7.752l-5.057,0l0,-5.426l5.057,0l0,5.426Zm0,7.753l-5.057,0l0,-5.427l5.057,0l0,5.427Zm0,7.752l-5.057,0l0,-5.427l5.057,0l0,5.427Zm-9.272,-77.524l-5.058,0l0,-5.427l5.058,0l0,5.427Zm0,15.505l-5.058,0l0,-5.427l5.058,0l0,5.427Zm0,7.752l-5.058,0l0,-5.426l5.058,0l0,5.426Zm0,7.753l-5.058,0l0,-5.427l5.058,0l0,5.427Zm0,7.752l-5.058,0l0,-5.427l5.058,0l0,5.427Zm0,7.752l-5.058,0l0,-5.426l5.058,0l0,5.426Zm0,7.753l-5.058,0l0,-5.427l5.058,0l0,5.427Zm0,7.752l-5.058,0l0,-5.426l5.058,0l0,5.426Zm0,7.753l-5.058,0l0,-5.427l5.058,0l0,5.427Zm-8.43,-69.772l-5.901,0l0,-5.427l5.901,0l0,5.427Zm0,7.752l-5.901,0l0,-5.426l5.901,0l0,5.426Zm0,7.753l-5.901,0l0,-5.427l5.901,0l0,5.427Zm0,15.505l-5.901,0l0,-5.427l5.901,0l0,5.427Zm0,7.752l-5.901,0l0,-5.427l5.901,0l0,5.427Zm0,7.752l-5.901,0l0,-5.426l5.901,0l0,5.426Zm0,7.753l-5.901,0l0,-5.427l5.901,0l0,5.427Zm0,15.505l-5.901,0l0,-5.427l5.901,0l0,5.427Zm0,7.752l-5.901,0l0,-5.427l5.901,0l0,5.427Zm17.702,-96.13l0,-9.303l-23.603,0l0,9.303l-4.214,0l0,110.084l41.305,0l0,-110.084l-13.488,0Z" style="fill:#cc6933;fill-rule:nonzero;"/><rect x="136.704" y="236.19" width="5.901" height="5.427" style="fill:#fff;fill-rule:nonzero;"/><rect x="145.977" y="236.19" width="5.058" height="5.427" style="fill:#fff;fill-rule:nonzero;"/><rect x="155.25" y="236.19" width="5.058" height="5.427" style="fill:#fff;fill-rule:nonzero;"/><rect x="163.679" y="236.19" width="5.058" height="5.427" style="fill:#fff;fill-rule:nonzero;"/><rect x="136.704" y="243.943" width="5.901" height="5.427" style="fill:#fff;fill-rule:nonzero;"/><rect x="155.25" y="243.943" width="5.058" height="5.427" style="fill:#fff;fill-rule:nonzero;"/><rect x="136.704" y="251.695" width="5.901" height="5.427" style="fill:#fff;fill-rule:nonzero;"/><rect x="145.977" y="251.695" width="5.058" height="5.427" style="fill:#fff;fill-rule:nonzero;"/><rect x="155.25" y="251.695" width="5.058" height="5.427" style="fill:#fff;fill-rule:nonzero;"/><rect x="163.679" y="251.695" width="5.058" height="5.427" style="fill:#fff;fill-rule:nonzero;"/><rect x="145.977" y="259.448" width="5.058" height="5.427" style="fill:#fff;fill-rule:nonzero;"/><rect x="155.25" y="259.448" width="5.058" height="5.427" style="fill:#fff;fill-rule:nonzero;"/><rect x="163.679" y="259.448" width="5.058" height="5.427" style="fill:#fff;fill-rule:nonzero;"/><rect x="136.704" y="267.2" width="5.901" height="5.427" style="fill:#fff;fill-rule:nonzero;"/><rect x="145.977" y="267.2" width="5.058" height="5.427" style="fill:#fff;fill-rule:nonzero;"/><rect x="155.25" y="267.2" width="5.058" height="5.427" style="fill:#fff;fill-rule:nonzero;"/><rect x="163.679" y="267.2" width="5.058" height="5.427" style="fill:#fff;fill-rule:nonzero;"/><rect x="136.704" y="274.952" width="5.901" height="5.427" style="fill:#fff;fill-rule:nonzero;"/><rect x="145.977" y="274.952" width="5.058" height="5.427" style="fill:#fff;fill-rule:nonzero;"/><rect x="155.25" y="274.952" width="5.058" height="5.427" style="fill:#fff;fill-rule:nonzero;"/><rect x="163.679" y="274.952" width="5.058" height="5.427" style="fill:#fff;fill-rule:nonzero;"/><rect x="136.704" y="282.705" width="5.901" height="5.427" style="fill:#fff;fill-rule:nonzero;"/><rect x="145.977" y="282.705" width="5.058" height="5.427" style="fill:#fff;fill-rule:nonzero;"/><rect x="163.679" y="282.705" width="5.058" height="5.427" style="fill:#fff;fill-rule:nonzero;"/><rect x="136.704" y="290.457" width="5.901" height="5.427" style="fill:#fff;fill-rule:nonzero;"/><rect x="145.977" y="290.457" width="5.058" height="5.427" style="fill:#fff;fill-rule:nonzero;"/><rect x="155.25" y="290.457" width="5.058" height="5.427" style="fill:#fff;fill-rule:nonzero;"/><rect x="163.679" y="290.457" width="5.058" height="5.427" style="fill:#fff;fill-rule:nonzero;"/><rect x="145.977" y="298.21" width="5.058" height="5.427" style="fill:#fff;fill-rule:nonzero;"/><rect x="155.25" y="298.21" width="5.058" height="5.427" style="fill:#fff;fill-rule:nonzero;"/><rect x="163.679" y="298.21" width="5.058" height="5.427" style="fill:#fff;fill-rule:nonzero;"/><rect x="136.704" y="305.962" width="5.901" height="5.427" style="fill:#fff;fill-rule:nonzero;"/><rect x="145.977" y="305.962" width="5.058" height="5.427" style="fill:#fff;fill-rule:nonzero;"/><rect x="155.25" y="305.962" width="5.058" height="5.427" style="fill:#fff;fill-rule:nonzero;"/><rect x="136.704" y="313.714" width="5.901" height="5.427" style="fill:#fff;fill-rule:nonzero;"/><rect x="155.25" y="313.714" width="5.058" height="5.427" style="fill:#fff;fill-rule:nonzero;"/><rect x="163.679" y="313.714" width="5.058" height="5.427" style="fill:#fff;fill-rule:nonzero;"/><path d="M302.768,250.92l-4.215,0l0,-7.753l4.215,0l0,7.753Zm0,11.629l-4.215,0l0,-7.753l4.215,0l0,7.753Zm0,11.628l-4.215,0l0,-7.752l4.215,0l0,7.752Zm0,11.629l-4.215,0l0,-7.753l4.215,0l0,7.753Zm0,11.628l-4.215,0l0,-7.752l4.215,0l0,7.752Zm0,11.629l-4.215,0l0,-7.752l4.215,0l0,7.752Zm0,11.629l-4.215,0l0,-7.753l4.215,0l0,7.753Zm-7.587,-69.772l-4.215,0l0,-7.753l4.215,0l0,7.753Zm0,23.257l-4.215,0l0,-7.752l4.215,0l0,7.752Zm0,11.629l-4.215,0l0,-7.753l4.215,0l0,7.753Zm0,11.628l-4.215,0l0,-7.752l4.215,0l0,7.752Zm0,11.629l-4.215,0l0,-7.752l4.215,0l0,7.752Zm0,11.629l-4.215,0l0,-7.753l4.215,0l0,7.753Zm-7.587,-69.772l-4.215,0l0,-7.753l4.215,0l0,7.753Zm0,11.629l-4.215,0l0,-7.753l4.215,0l0,7.753Zm0,11.628l-4.215,0l0,-7.752l4.215,0l0,7.752Zm0,11.629l-4.215,0l0,-7.753l4.215,0l0,7.753Zm0,11.628l-4.215,0l0,-7.752l4.215,0l0,7.752Zm0,23.258l-4.215,0l0,-7.753l4.215,0l0,7.753Zm-7.586,-69.772l-4.215,0l0,-7.753l4.215,0l0,7.753Zm0,11.629l-4.215,0l0,-7.753l4.215,0l0,7.753Zm0,23.257l-4.215,0l0,-7.753l4.215,0l0,7.753Zm0,23.257l-4.215,0l0,-7.752l4.215,0l0,7.752Zm0,11.629l-4.215,0l0,-7.753l4.215,0l0,7.753Zm-7.587,-69.772l-4.215,0l0,-7.753l4.215,0l0,7.753Zm0,11.629l-4.215,0l0,-7.753l4.215,0l0,7.753Zm0,11.628l-4.215,0l0,-7.752l4.215,0l0,7.752Zm0,11.629l-4.215,0l0,-7.753l4.215,0l0,7.753Zm0,11.628l-4.215,0l0,-7.752l4.215,0l0,7.752Zm0,11.629l-4.215,0l0,-7.752l4.215,0l0,7.752Zm0,11.629l-4.215,0l0,-7.753l4.215,0l0,7.753Zm3.372,-90.704l4.215,0l0,7.753l-4.215,0l0,-7.753Zm7.586,6.202l0,-6.202l4.215,0l0,7.753l-4.215,0l0,-1.551Zm7.587,-6.202l4.215,0l0,7.753l-4.215,0l0,-7.753Zm9.273,8.528l0,-12.404l-12.645,0l0,-15.505l-4.215,0l0,15.505l-11.801,0l0,12.404l-6.744,0l0,94.579l41.305,0l0,-94.579l-5.9,0Z" style="fill:#454c53;fill-rule:nonzero;"/><rect x="268.206" y="243.167" width="4.215" height="7.752" style="fill:#fff;fill-rule:nonzero;"/><rect x="275.793" y="243.167" width="4.215" height="7.752" style="fill:#fff;fill-rule:nonzero;"/><rect x="283.379" y="243.167" width="4.215" height="7.752" style="fill:#fff;fill-rule:nonzero;"/><rect x="290.966" y="243.167" width="4.215" height="7.752" style="fill:#fff;fill-rule:nonzero;"/><rect x="298.553" y="243.167" width="4.215" height="7.752" style="fill:#fff;fill-rule:nonzero;"/><rect x="268.206" y="254.796" width="4.215" height="7.752" style="fill:#fff;fill-rule:nonzero;"/><rect x="275.793" y="254.796" width="4.215" height="7.752" style="fill:#fff;fill-rule:nonzero;"/><rect x="283.379" y="254.796" width="4.215" height="7.752" style="fill:#fff;fill-rule:nonzero;"/><rect x="298.553" y="254.796" width="4.215" height="7.752" style="fill:#fff;fill-rule:nonzero;"/><rect x="268.206" y="266.425" width="4.215" height="7.752" style="fill:#fff;fill-rule:nonzero;"/><rect x="283.379" y="266.425" width="4.215" height="7.752" style="fill:#fff;fill-rule:nonzero;"/><rect x="290.966" y="266.425" width="4.215" height="7.752" style="fill:#fff;fill-rule:nonzero;"/><rect x="298.553" y="266.425" width="4.215" height="7.752" style="fill:#fff;fill-rule:nonzero;"/><rect x="268.206" y="278.053" width="4.215" height="7.752" style="fill:#fff;fill-rule:nonzero;"/><rect x="275.793" y="278.053" width="4.215" height="7.752" style="fill:#fff;fill-rule:nonzero;"/><rect x="283.379" y="278.053" width="4.215" height="7.752" style="fill:#fff;fill-rule:nonzero;"/><rect x="290.966" y="278.053" width="4.215" height="7.752" style="fill:#fff;fill-rule:nonzero;"/><rect x="298.553" y="278.053" width="4.215" height="7.752" style="fill:#fff;fill-rule:nonzero;"/><rect x="268.206" y="289.682" width="4.215" height="7.752" style="fill:#fff;fill-rule:nonzero;"/><rect x="283.379" y="289.682" width="4.215" height="7.752" style="fill:#fff;fill-rule:nonzero;"/><rect x="290.966" y="289.682" width="4.215" height="7.752" style="fill:#fff;fill-rule:nonzero;"/><rect x="298.553" y="289.682" width="4.215" height="7.752" style="fill:#fff;fill-rule:nonzero;"/><rect x="268.206" y="301.311" width="4.215" height="7.752" style="fill:#fff;fill-rule:nonzero;"/><rect x="275.793" y="301.311" width="4.215" height="7.752" style="fill:#fff;fill-rule:nonzero;"/><rect x="290.966" y="301.311" width="4.215" height="7.752" style="fill:#fff;fill-rule:nonzero;"/><rect x="298.553" y="301.311" width="4.215" height="7.752" style="fill:#fff;fill-rule:nonzero;"/><rect x="268.206" y="312.939" width="4.215" height="7.752" style="fill:#fff;fill-rule:nonzero;"/><rect x="275.793" y="312.939" width="4.215" height="7.752" style="fill:#fff;fill-rule:nonzero;"/><rect x="283.379" y="312.939" width="4.215" height="7.752" style="fill:#fff;fill-rule:nonzero;"/><rect x="290.966" y="312.939" width="4.215" height="7.752" style="fill:#fff;fill-rule:nonzero;"/><rect x="298.553" y="312.939" width="4.215" height="7.752" style="fill:#fff;fill-rule:nonzero;"/><rect x="275.793" y="229.988" width="4.215" height="7.752" style="fill:#fff;fill-rule:nonzero;"/><path d="M287.594,236.19l0,-6.202l-4.215,0l0,7.753l4.215,0l0,-1.551Z" style="fill:#fff;fill-rule:nonzero;"/><rect x="290.966" y="229.988" width="4.215" height="7.752" style="fill:#fff;fill-rule:nonzero;"/><rect x="385.378" y="278.053" width="30.347" height="55.817" style="fill:#6d20c9;fill-rule:nonzero;"/><rect x="388.75" y="281.93" width="10.116" height="2.326" style="fill:#fff;fill-rule:nonzero;"/><rect x="402.869" y="281.93" width="9.483" height="2.326" style="fill:#fff;fill-rule:nonzero;"/><rect x="388.75" y="288.131" width="10.116" height="2.326" style="fill:#fff;fill-rule:nonzero;"/><rect x="402.869" y="288.131" width="9.483" height="2.326" style="fill:#fff;fill-rule:nonzero;"/><rect x="388.75" y="294.333" width="10.116" height="2.326" style="fill:#fff;fill-rule:nonzero;"/><rect x="402.869" y="294.333" width="9.483" height="2.326" style="fill:#fff;fill-rule:nonzero;"/><rect x="388.75" y="300.535" width="10.116" height="2.326" style="fill:#fff;fill-rule:nonzero;"/><rect x="402.869" y="300.535" width="9.483" height="2.326" style="fill:#fff;fill-rule:nonzero;"/><rect x="402.869" y="306.737" width="9.483" height="2.326" style="fill:#fff;fill-rule:nonzero;"/><rect x="388.75" y="306.737" width="10.116" height="2.326" style="fill:#fff;fill-rule:nonzero;"/><rect x="388.75" y="312.939" width="10.116" height="2.326" style="fill:#fff;fill-rule:nonzero;"/><rect x="402.869" y="312.939" width="9.483" height="2.326" style="fill:#fff;fill-rule:nonzero;"/><rect x="388.75" y="319.141" width="10.116" height="2.326" style="fill:#fff;fill-rule:nonzero;"/><rect x="402.869" y="319.141" width="9.483" height="2.326" style="fill:#fff;fill-rule:nonzero;"/><rect x="27.12" y="278.053" width="30.347" height="55.817" style="fill:#d926a5;fill-rule:nonzero;"/><rect x="31.019" y="281.93" width="6.051" height="2.326" style="fill:#fff;fill-rule:nonzero;"/><rect x="39.457" y="281.93" width="5.672" height="2.326" style="fill:#fff;fill-rule:nonzero;"/><rect x="39.457" y="288.131" width="5.672" height="2.326" style="fill:#fff;fill-rule:nonzero;"/><rect x="31.019" y="294.333" width="6.051" height="2.326" style="fill:#fff;fill-rule:nonzero;"/><rect x="39.457" y="294.333" width="5.672" height="2.326" style="fill:#fff;fill-rule:nonzero;"/><rect x="31.019" y="300.535" width="6.051" height="2.326" style="fill:#fff;fill-rule:nonzero;"/><rect x="39.457" y="300.535" width="5.672" height="2.326" style="fill:#fff;fill-rule:nonzero;"/><rect x="39.457" y="306.737" width="5.672" height="2.326" style="fill:#fff;fill-rule:nonzero;"/><rect x="31.019" y="312.939" width="6.051" height="2.326" style="fill:#fff;fill-rule:nonzero;"/><rect x="39.457" y="312.939" width="5.672" height="2.326" style="fill:#fff;fill-rule:nonzero;"/><rect x="31.019" y="319.141" width="6.051" height="2.326" style="fill:#fff;fill-rule:nonzero;"/><rect x="47.035" y="281.93" width="6.051" height="2.326" style="fill:#fff;fill-rule:nonzero;"/><rect x="47.035" y="288.131" width="6.051" height="2.326" style="fill:#fff;fill-rule:nonzero;"/><rect x="47.035" y="300.535" width="6.051" height="2.326" style="fill:#fff;fill-rule:nonzero;"/><rect x="47.035" y="306.737" width="6.051" height="2.326" style="fill:#fff;fill-rule:nonzero;"/><rect x="47.035" y="312.939" width="6.051" height="2.326" style="fill:#fff;fill-rule:nonzero;"/><rect x="39.457" y="319.141" width="5.672" height="2.326" style="fill:#fff;fill-rule:nonzero;"/><path d="M87.813,271.851l-23.603,0l0,-2.325l23.603,0l0,2.325Zm0,6.202l-23.603,0l0,-2.325l23.603,0l0,2.325Zm0,6.202l-23.603,0l0,-2.325l23.603,0l0,2.325Zm0,6.202l-23.603,0l0,-2.326l23.603,0l0,2.326Zm0,6.202l-23.603,0l0,-2.326l23.603,0l0,2.326Zm0,6.202l-23.603,0l0,-2.326l23.603,0l0,2.326Zm0,6.202l-23.603,0l0,-2.326l23.603,0l0,2.326Zm0,6.202l-23.603,0l0,-2.326l23.603,0l0,2.326Zm-17.702,-49.616l0,0.776l-4.215,0l0,-0.776l-5.058,0l0,64.345l30.347,0l0,-64.345l-21.074,0Z" style="fill:#3345cc;fill-rule:nonzero;"/><rect x="64.21" y="269.526" width="23.603" height="2.326" style="fill:#fff;fill-rule:nonzero;"/><rect x="64.21" y="275.728" width="23.603" height="2.326" style="fill:#fff;fill-rule:nonzero;"/><rect x="64.21" y="281.93" width="23.603" height="2.326" style="fill:#fff;fill-rule:nonzero;"/><rect x="64.21" y="288.131" width="23.603" height="2.326" style="fill:#fff;fill-rule:nonzero;"/><rect x="64.21" y="294.333" width="23.603" height="2.326" style="fill:#fff;fill-rule:nonzero;"/><rect x="64.21" y="300.535" width="23.603" height="2.326" style="fill:#fff;fill-rule:nonzero;"/><rect x="64.21" y="306.737" width="23.603" height="2.326" style="fill:#fff;fill-rule:nonzero;"/><rect x="64.21" y="312.939" width="23.603" height="2.326" style="fill:#fff;fill-rule:nonzero;"/><path d="M70.111,266.425l0,-0.776l0,-6.977l-4.215,0l0,7.753l4.215,0Z" style="fill:#454c53;fill-rule:nonzero;"/><path d="M371.89,275.728l-3.372,0l0,-3.877l3.372,0l0,3.877Zm0,5.426l-3.372,0l0,-3.876l3.372,0l0,3.876Zm0,5.427l-3.372,0l0,-3.876l3.372,0l0,3.876Zm0,5.427l-3.372,0l0,-3.877l3.372,0l0,3.877Zm0,5.426l-3.372,0l0,-3.876l3.372,0l0,3.876Zm0,5.427l-3.372,0l0,-3.876l3.372,0l0,3.876Zm0,5.427l-3.372,0l0,-3.877l3.372,0l0,3.877Zm0,5.426l-3.372,0l0,-3.876l3.372,0l0,3.876Zm0,5.427l-3.372,0l0,-3.876l3.372,0l0,3.876Zm0,5.427l-3.372,0l0,-3.876l3.372,0l0,3.876Zm-6.743,-48.84l-3.372,0l0,-3.877l3.372,0l0,3.877Zm0,5.426l-3.372,0l0,-3.876l3.372,0l0,3.876Zm0,5.427l-3.372,0l0,-3.876l3.372,0l0,3.876Zm0,5.427l-3.372,0l0,-3.877l3.372,0l0,3.877Zm0,5.426l-3.372,0l0,-3.876l3.372,0l0,3.876Zm0,5.427l-3.372,0l0,-3.876l3.372,0l0,3.876Zm0,5.427l-3.372,0l0,-3.877l3.372,0l0,3.877Zm0,5.426l-3.372,0l0,-3.876l3.372,0l0,3.876Zm0,5.427l-3.372,0l0,-3.876l3.372,0l0,3.876Zm0,5.427l-3.372,0l0,-3.876l3.372,0l0,3.876Zm0,-58.919l0,-6.201l-4.215,0l0,6.201l-2.529,0l0,-10.078l-4.215,0l0,10.078l-9.272,0l0,64.345l37.09,0l0,-64.345l-16.859,0Z" style="fill:#c33;fill-rule:nonzero;"/><rect x="368.518" y="271.851" width="3.372" height="3.876" style="fill:#fff;fill-rule:nonzero;"/><rect x="368.518" y="277.278" width="3.372" height="3.876" style="fill:#fff;fill-rule:nonzero;"/><rect x="368.518" y="282.705" width="3.372" height="3.876" style="fill:#fff;fill-rule:nonzero;"/><rect x="368.518" y="288.131" width="3.372" height="3.876" style="fill:#fff;fill-rule:nonzero;"/><rect x="368.518" y="293.558" width="3.372" height="3.876" style="fill:#fff;fill-rule:nonzero;"/><rect x="368.518" y="298.985" width="3.372" height="3.876" style="fill:#fff;fill-rule:nonzero;"/><rect x="368.518" y="304.411" width="3.372" height="3.876" style="fill:#fff;fill-rule:nonzero;"/><rect x="368.518" y="309.838" width="3.372" height="3.876" style="fill:#fff;fill-rule:nonzero;"/><rect x="368.518" y="315.265" width="3.372" height="3.876" style="fill:#fff;fill-rule:nonzero;"/><rect x="368.518" y="320.692" width="3.372" height="3.876" style="fill:#fff;fill-rule:nonzero;"/><rect x="361.775" y="271.851" width="3.372" height="3.876" style="fill:#fff;fill-rule:nonzero;"/><rect x="361.775" y="277.278" width="3.372" height="3.876" style="fill:#fff;fill-rule:nonzero;"/><rect x="361.775" y="282.705" width="3.372" height="3.876" style="fill:#fff;fill-rule:nonzero;"/><rect x="361.775" y="288.131" width="3.372" height="3.876" style="fill:#fff;fill-rule:nonzero;"/><rect x="361.775" y="293.558" width="3.372" height="3.876" style="fill:#fff;fill-rule:nonzero;"/><rect x="361.775" y="298.985" width="3.372" height="3.876" style="fill:#fff;fill-rule:nonzero;"/><rect x="361.775" y="304.411" width="3.372" height="3.876" style="fill:#fff;fill-rule:nonzero;"/><rect x="361.775" y="309.838" width="3.372" height="3.876" style="fill:#fff;fill-rule:nonzero;"/><rect x="361.775" y="315.265" width="3.372" height="3.876" style="fill:#fff;fill-rule:nonzero;"/><rect x="361.775" y="320.692" width="3.372" height="3.876" style="fill:#fff;fill-rule:nonzero;"/></g></g><g id="Capa2"><g opacity="0.449275"><rect x="360.089" y="332.966" width="563.94" height="6.977" style="fill:#454c53;fill-rule:nonzero;"/><path d="M828.71,239.42l0,96.001l29.31,0l0,-95.761l-0.709,-0.24l-28.601,0Z" style="fill:#6d20c9;fill-rule:nonzero;"/><rect x="832.201" y="250.145" width="8.148" height="1.55" style="fill:#fff;fill-rule:nonzero;"/><rect x="847.092" y="250.145" width="7.868" height="1.55" style="fill:#fff;fill-rule:nonzero;"/><rect x="832.201" y="254.021" width="8.148" height="2.326" style="fill:#fff;fill-rule:nonzero;"/><rect x="847.092" y="262.549" width="7.868" height="2.326" style="fill:#fff;fill-rule:nonzero;"/><rect x="832.201" y="262.549" width="8.148" height="2.326" style="fill:#fff;fill-rule:nonzero;"/><rect x="847.092" y="267.2" width="7.868" height="1.55" style="fill:#fff;fill-rule:nonzero;"/><rect x="847.092" y="271.076" width="7.868" height="2.326" style="fill:#fff;fill-rule:nonzero;"/><rect x="832.201" y="279.604" width="8.148" height="2.326" style="fill:#fff;fill-rule:nonzero;"/><rect x="847.092" y="279.604" width="7.868" height="2.326" style="fill:#fff;fill-rule:nonzero;"/><rect x="832.201" y="288.131" width="8.148" height="2.326" style="fill:#fff;fill-rule:nonzero;"/><rect x="847.092" y="288.131" width="7.868" height="2.326" style="fill:#fff;fill-rule:nonzero;"/><rect x="847.092" y="292.783" width="7.868" height="1.55" style="fill:#fff;fill-rule:nonzero;"/><rect x="832.201" y="296.659" width="8.148" height="2.326" style="fill:#fff;fill-rule:nonzero;"/><rect x="832.201" y="305.187" width="8.148" height="2.326" style="fill:#fff;fill-rule:nonzero;"/><rect x="847.092" y="305.187" width="7.868" height="2.326" style="fill:#fff;fill-rule:nonzero;"/><rect x="832.201" y="309.838" width="8.148" height="1.55" style="fill:#fff;fill-rule:nonzero;"/><rect x="847.092" y="313.714" width="7.868" height="2.326" style="fill:#fff;fill-rule:nonzero;"/><rect x="832.201" y="322.242" width="8.148" height="2.326" style="fill:#fff;fill-rule:nonzero;"/><rect x="847.092" y="322.242" width="7.868" height="2.326" style="fill:#fff;fill-rule:nonzero;"/><rect x="832.201" y="326.893" width="8.148" height="1.55" style="fill:#fff;fill-rule:nonzero;"/><rect x="537.111" y="256.217" width="3.372" height="13.179" style="fill:#fff;fill-rule:nonzero;"/><rect x="543.854" y="256.217" width="3.372" height="13.179" style="fill:#fff;fill-rule:nonzero;"/><rect x="550.598" y="256.217" width="3.372" height="13.179" style="fill:#fff;fill-rule:nonzero;"/><rect x="557.342" y="256.217" width="3.372" height="13.179" style="fill:#fff;fill-rule:nonzero;"/><rect x="629.253" y="244.589" width="37.09" height="90.703" style="fill:#6d20c9;fill-rule:nonzero;"/><rect x="645.852" y="272.497" width="3.372" height="13.179" style="fill:#fff;fill-rule:nonzero;"/><rect x="652.596" y="272.497" width="3.372" height="13.179" style="fill:#fff;fill-rule:nonzero;"/><rect x="659.34" y="272.497" width="3.372" height="13.179" style="fill:#fff;fill-rule:nonzero;"/><rect x="639.109" y="256.992" width="3.372" height="13.179" style="fill:#fff;fill-rule:nonzero;"/><rect x="645.852" y="256.992" width="3.372" height="13.179" style="fill:#fff;fill-rule:nonzero;"/><rect x="652.596" y="256.992" width="3.372" height="13.179" style="fill:#fff;fill-rule:nonzero;"/><rect x="639.109" y="288.002" width="3.372" height="13.179" style="fill:#fff;fill-rule:nonzero;"/><rect x="652.596" y="288.002" width="3.372" height="13.179" style="fill:#fff;fill-rule:nonzero;"/><rect x="659.34" y="288.002" width="3.372" height="13.179" style="fill:#fff;fill-rule:nonzero;"/><rect x="639.109" y="303.507" width="3.372" height="13.179" style="fill:#fff;fill-rule:nonzero;"/><rect x="645.852" y="303.507" width="3.372" height="13.179" style="fill:#fff;fill-rule:nonzero;"/><rect x="659.34" y="303.507" width="3.372" height="13.179" style="fill:#fff;fill-rule:nonzero;"/><rect x="582.047" y="231.409" width="41.305" height="101.557" style="fill:#c33;fill-rule:nonzero;"/><rect x="586.002" y="244.589" width="5.901" height="5.427" style="fill:#fff;fill-rule:nonzero;"/><rect x="595.275" y="244.589" width="5.058" height="5.427" style="fill:#fff;fill-rule:nonzero;"/><rect x="595.275" y="252.341" width="5.058" height="5.427" style="fill:#fff;fill-rule:nonzero;"/><rect x="586.002" y="260.093" width="5.901" height="5.427" style="fill:#fff;fill-rule:nonzero;"/><rect x="595.275" y="260.093" width="5.058" height="5.427" style="fill:#fff;fill-rule:nonzero;"/><rect x="586.002" y="267.846" width="5.901" height="5.427" style="fill:#fff;fill-rule:nonzero;"/><rect x="595.275" y="267.846" width="5.058" height="5.427" style="fill:#fff;fill-rule:nonzero;"/><rect x="595.275" y="275.598" width="5.058" height="5.427" style="fill:#fff;fill-rule:nonzero;"/><rect x="586.002" y="283.351" width="5.901" height="5.427" style="fill:#fff;fill-rule:nonzero;"/><rect x="595.275" y="283.351" width="5.058" height="5.427" style="fill:#fff;fill-rule:nonzero;"/><rect x="586.002" y="291.103" width="5.901" height="5.427" style="fill:#fff;fill-rule:nonzero;"/><rect x="595.275" y="291.103" width="5.058" height="5.427" style="fill:#fff;fill-rule:nonzero;"/><rect x="586.002" y="298.855" width="5.901" height="5.427" style="fill:#fff;fill-rule:nonzero;"/><rect x="595.275" y="298.855" width="5.058" height="5.427" style="fill:#fff;fill-rule:nonzero;"/><rect x="595.275" y="306.608" width="5.058" height="5.427" style="fill:#fff;fill-rule:nonzero;"/><rect x="586.002" y="314.36" width="5.901" height="5.427" style="fill:#fff;fill-rule:nonzero;"/><rect x="595.275" y="314.36" width="5.058" height="5.427" style="fill:#fff;fill-rule:nonzero;"/><rect x="595.275" y="322.113" width="5.058" height="5.427" style="fill:#fff;fill-rule:nonzero;"/><rect x="612.977" y="244.589" width="5.058" height="5.427" style="fill:#fff;fill-rule:nonzero;"/><rect x="603.704" y="252.341" width="5.901" height="5.427" style="fill:#fff;fill-rule:nonzero;"/><rect x="612.977" y="252.341" width="5.058" height="5.427" style="fill:#fff;fill-rule:nonzero;"/><rect x="612.977" y="260.093" width="5.058" height="5.427" style="fill:#fff;fill-rule:nonzero;"/><rect x="603.704" y="267.846" width="5.901" height="5.427" style="fill:#fff;fill-rule:nonzero;"/><rect x="612.977" y="267.846" width="5.058" height="5.427" style="fill:#fff;fill-rule:nonzero;"/><rect x="603.704" y="275.598" width="5.901" height="5.427" style="fill:#fff;fill-rule:nonzero;"/><rect x="603.704" y="283.351" width="5.901" height="5.427" style="fill:#fff;fill-rule:nonzero;"/><rect x="612.977" y="283.351" width="5.058" height="5.427" style="fill:#fff;fill-rule:nonzero;"/><rect x="612.977" y="291.103" width="5.058" height="5.427" style="fill:#fff;fill-rule:nonzero;"/><rect x="603.704" y="298.855" width="5.901" height="5.427" style="fill:#fff;fill-rule:nonzero;"/><rect x="612.977" y="298.855" width="5.058" height="5.427" style="fill:#fff;fill-rule:nonzero;"/><rect x="603.704" y="306.608" width="5.901" height="5.427" style="fill:#fff;fill-rule:nonzero;"/><rect x="612.977" y="306.608" width="5.058" height="5.427" style="fill:#fff;fill-rule:nonzero;"/><rect x="612.977" y="314.36" width="5.058" height="5.427" style="fill:#fff;fill-rule:nonzero;"/><rect x="603.704" y="322.113" width="5.901" height="5.427" style="fill:#fff;fill-rule:nonzero;"/><rect x="612.977" y="322.113" width="5.058" height="5.427" style="fill:#fff;fill-rule:nonzero;"/><rect x="715.818" y="255.442" width="32.032" height="79.85" style="fill:#3345cc;fill-rule:nonzero;"/><rect x="719.19" y="260.093" width="24.446" height="3.101" style="fill:#fff;fill-rule:nonzero;"/><rect x="719.19" y="267.846" width="24.446" height="3.101" style="fill:#fff;fill-rule:nonzero;"/><rect x="719.19" y="275.598" width="24.446" height="3.101" style="fill:#fff;fill-rule:nonzero;"/><rect x="719.19" y="283.351" width="24.446" height="3.101" style="fill:#fff;fill-rule:nonzero;"/><rect x="719.19" y="291.103" width="24.446" height="2.326" style="fill:#fff;fill-rule:nonzero;"/><rect x="719.19" y="298.855" width="24.446" height="2.326" style="fill:#fff;fill-rule:nonzero;"/><rect x="719.19" y="306.608" width="24.446" height="2.326" style="fill:#fff;fill-rule:nonzero;"/><rect x="719.19" y="314.36" width="24.446" height="2.326" style="fill:#fff;fill-rule:nonzero;"/><path d="M575.044,281.025l-2.405,0c-0.1,1.08 -0.246,2.148 -0.439,3.201l-5.1,-1.258l-1.963,6.74l5.147,1.269c-0.41,1.048 -0.874,2.073 -1.375,3.078l-4.567,-2.426l-3.793,6.044l4.596,2.44c-0.69,0.911 -1.412,1.798 -2.181,2.651l-3.724,-3.426l-2.209,2.032l-23.348,-21.472c0.407,-0.573 0.648,-1.249 0.698,-1.974l33.076,0l0,3.101l7.587,0l0,-6.977l0,6.977Zm-17.419,26.697c-0.918,0.715 -1.87,1.394 -2.852,2.038l-2.631,-4.19l-6.569,3.49l2.66,4.239c-1.086,0.474 -2.198,0.907 -3.332,1.297l-1.368,-4.695l-7.328,1.806l1.167,4.728c-1.127,0.188 -1.947,0.342 -3.633,0.446l0,-4.847l-3.372,0l0,-30.349c0.843,-0.111 1.426,-0.344 1.934,-0.673l23.433,21.454l-1.911,1.807l3.802,3.449Zm6.859,-44.511l4.262,-2.263c0.513,1 0.985,2.022 1.405,3.066l-4.74,1.168l1.964,6.74l4.756,-1.172c0.21,1.085 0.375,2.184 0.487,3.298l-5.161,0l0,2.325l-33.295,0c-0.195,-0.535 -0.502,-1.021 -0.903,-1.432l23.568,-21.675l2.412,2.219l3.469,-3.191c0.776,0.846 1.511,1.725 2.208,2.63l-4.225,2.244l3.793,6.043Zm-21.227,-18.221l1.276,-4.381c1.138,0.38 2.251,0.81 3.342,1.274l-2.447,3.898l6.571,3.488l2.454,-3.908c0.988,0.636 1.95,1.304 2.875,2.013l-3.454,3.176l1.761,1.62l-23.945,21.827c-0.35,-0.158 -0.48,-0.282 -1.323,-0.351l0,-30.608l3.372,0l0,-4.588c1.686,0.092 2.245,0.224 3.246,0.382l-1.163,4.352l7.435,1.806Zm-35.197,4.316l6.57,-3.488l-2.496,-3.976c1.093,-0.462 2.207,-0.888 3.347,-1.265l1.307,4.484l7.327,-1.806l-1.504,-4.44c1.234,-0.191 2.698,-0.332 3.541,-0.423l0,4.646l2.529,0l0,30.61c0,0.102 -0.893,0.307 -1.364,0.589l-23.442,-21.655l2.263,-2.032l-3.5,-3.242c0.927,-0.707 1.906,-1.372 2.896,-2.005l2.526,4.003Zm-18.261,14.614c0.424,-1.044 0.896,-2.066 1.41,-3.065l4.366,2.318l3.795,-6.042l-4.313,-2.29c0.7,-0.902 1.438,-1.778 2.217,-2.623l3.55,3.266l1.965,-1.806l23.527,21.637c-0.246,0.321 -0.429,0.679 -0.568,1.058l-33.314,0l0,-2.325l-5.142,0c0.115,-1.148 0.287,-2.28 0.506,-3.398l4.869,1.201l1.965,-6.74l-4.833,-1.191Zm5.919,27.747l-4.671,2.48c-0.505,-1.004 -0.972,-2.026 -1.386,-3.074l5.248,-1.293l-1.965,-6.74l-5.215,1.286c-0.202,-1.086 -0.355,-2.187 -0.458,-3.301l5.163,0l0,-3.101l33.095,0c0.038,0.548 0.188,1.063 0.437,1.532l-23.381,21.501l-1.76,-1.619l-3.808,3.504c-0.771,-0.852 -1.496,-1.738 -2.189,-2.646l4.683,-2.487l-3.793,-6.042Zm20.793,18.163l-1.399,4.804c-1.136,-0.387 -2.247,-0.822 -3.335,-1.293l2.711,-4.319l-6.571,-3.489l-2.69,4.287c-0.984,-0.643 -1.939,-1.318 -2.859,-2.033l3.822,-3.515l-2.412,-2.219l23.004,-21.348c0.586,0.483 1.899,0.835 1.899,0.979l0,30.35l-2.529,0l0,4.905c-0.843,-0.101 -2.568,-0.263 -3.926,-0.486l1.509,-4.818l-7.224,-1.805Zm18.914,10.769c23.603,-2.676 41.385,-20.903 41.385,-42.933c0,-23.867 -21.008,-43.284 -46.961,-43.284c-25.951,0 -47.222,19.417 -47.222,43.284c0,22.024 18.236,40.247 40.996,42.93l0,7.718l-28.66,0l0,8.528l69.122,0l0,-8.528l-28.66,0l0,-7.715Z" style="fill:#d926a5;fill-rule:nonzero;"/><rect x="461.244" y="306.608" width="27.818" height="28.684" style="fill:#454c53;fill-rule:nonzero;"/><rect x="464.616" y="310.484" width="3.372" height="6.977" style="fill:#fff;fill-rule:nonzero;"/><rect x="476.417" y="310.484" width="3.372" height="6.977" style="fill:#fff;fill-rule:nonzero;"/><rect x="482.318" y="310.484" width="3.372" height="6.977" style="fill:#fff;fill-rule:nonzero;"/><rect x="464.616" y="319.787" width="3.372" height="6.977" style="fill:#fff;fill-rule:nonzero;"/><rect x="470.517" y="319.787" width="3.372" height="6.977" style="fill:#fff;fill-rule:nonzero;"/><rect x="482.318" y="319.787" width="3.372" height="6.977" style="fill:#fff;fill-rule:nonzero;"/><path d="M454.5,263.97l-6.743,0l0,-6.978l6.743,0l0,6.978Zm0,10.078l-6.743,0l0,-6.978l6.743,0l0,6.978Zm0,20.156l-6.743,0l0,-6.977l6.743,0l0,6.977Zm0,10.078l-6.743,0l0,-6.977l6.743,0l0,6.977Zm0,10.078l-6.743,0l0,-6.977l6.743,0l0,6.977Zm-9.272,-60.469l-6.744,0l0,-6.977l6.744,0l0,6.977Zm0,10.079l-6.744,0l0,-6.978l6.744,0l0,6.978Zm0,10.078l-6.744,0l0,-6.978l6.744,0l0,6.978Zm0,10.078l-6.744,0l0,-6.977l6.744,0l0,6.977Zm0,10.078l-6.744,0l0,-6.977l6.744,0l0,6.977Zm0,20.156l-6.744,0l0,-6.977l6.744,0l0,6.977Zm0,10.078l-6.744,0l0,-6.977l6.744,0l0,6.977Zm-9.273,-70.547l-6.743,0l0,-6.977l6.743,0l0,6.977Zm0,10.079l-6.743,0l0,-6.978l6.743,0l0,6.978Zm0,20.156l-6.743,0l0,-6.977l6.743,0l0,6.977Zm0,10.078l-6.743,0l0,-6.977l6.743,0l0,6.977Zm0,10.078l-6.743,0l0,-6.977l6.743,0l0,6.977Zm0,10.078l-6.743,0l0,-6.977l6.743,0l0,6.977Zm0,10.078l-6.743,0l0,-6.977l6.743,0l0,6.977Zm17.702,-82.175l0,-6.977l-5.9,0l0,6.977l-21.074,0l0,92.253l30.346,0l0,-92.253l-3.372,0Z" style="fill:#3345cc;fill-rule:nonzero;"/><rect x="429.212" y="246.914" width="6.744" height="6.977" style="fill:#fff;fill-rule:nonzero;"/><rect x="438.484" y="246.914" width="6.744" height="6.977" style="fill:#fff;fill-rule:nonzero;"/><rect x="429.212" y="256.992" width="6.744" height="6.977" style="fill:#fff;fill-rule:nonzero;"/><rect x="447.757" y="256.992" width="6.744" height="6.977" style="fill:#fff;fill-rule:nonzero;"/><rect x="438.484" y="256.992" width="6.744" height="6.977" style="fill:#fff;fill-rule:nonzero;"/><rect x="447.757" y="267.07" width="6.744" height="6.977" style="fill:#fff;fill-rule:nonzero;"/><rect x="438.484" y="267.07" width="6.744" height="6.977" style="fill:#fff;fill-rule:nonzero;"/><rect x="429.212" y="277.149" width="6.744" height="6.977" style="fill:#fff;fill-rule:nonzero;"/><rect x="438.484" y="277.149" width="6.744" height="6.977" style="fill:#fff;fill-rule:nonzero;"/><rect x="429.212" y="287.227" width="6.744" height="6.977" style="fill:#fff;fill-rule:nonzero;"/><rect x="447.757" y="287.227" width="6.744" height="6.977" style="fill:#fff;fill-rule:nonzero;"/><rect x="438.484" y="287.227" width="6.744" height="6.977" style="fill:#fff;fill-rule:nonzero;"/><rect x="429.212" y="297.305" width="6.744" height="6.977" style="fill:#fff;fill-rule:nonzero;"/><rect x="447.757" y="297.305" width="6.744" height="6.977" style="fill:#fff;fill-rule:nonzero;"/><rect x="429.212" y="307.383" width="6.744" height="6.977" style="fill:#fff;fill-rule:nonzero;"/><rect x="447.757" y="307.383" width="6.744" height="6.977" style="fill:#fff;fill-rule:nonzero;"/><rect x="438.484" y="307.383" width="6.744" height="6.977" style="fill:#fff;fill-rule:nonzero;"/><rect x="429.212" y="317.461" width="6.744" height="6.977" style="fill:#fff;fill-rule:nonzero;"/><rect x="438.484" y="317.461" width="6.744" height="6.977" style="fill:#fff;fill-rule:nonzero;"/><path d="M702.331,294.204l3.372,0l0,16.28l-3.372,0l0,-16.28Zm-6.744,0l3.372,0l0,16.28l-3.372,0l0,-16.28Zm-6.744,0l3.372,0l0,16.28l-3.372,0l0,-16.28Zm-6.743,0l3.372,0l0,16.28l-3.372,0l0,-16.28Zm-6.744,16.28l0,-12.404l0,-3.876l3.372,0l0,16.28l-3.372,0Zm6.744,-37.987l3.372,0l0,13.179l-3.372,0l0,-13.179Zm3.372,-4.651l-3.372,0l0,-13.179l3.372,0l0,13.179Zm3.371,4.651l3.372,0l0,13.179l-3.372,0l0,-13.179Zm10.116,13.179l-3.372,0l0,-13.179l3.372,0l0,13.179Zm0,-17.83l-3.372,0l0,-13.179l3.372,0l0,13.179Zm-6.744,0l-3.372,0l0,-13.179l3.372,0l0,13.179Zm14.331,17.83l0,-19.381l0,-16.28l-5.058,0l0,-9.303l-7.587,0l0,-12.404l-5.901,0l0,12.404l-7.586,0l0,9.303l-5.058,0l0,35.661l-4.215,0l0,48.065l39.619,0l0,-48.065l-4.214,0Z" style="fill:#cc6933;fill-rule:nonzero;"/><path d="M678.728,294.204l-3.372,0l0,16.28l3.372,0l0,-16.28Z" style="fill:#fff;fill-rule:nonzero;"/><rect x="682.1" y="294.204" width="3.372" height="16.28" style="fill:#fff;fill-rule:nonzero;"/><rect x="688.843" y="294.204" width="3.372" height="16.28" style="fill:#fff;fill-rule:nonzero;"/><rect x="695.587" y="294.204" width="3.372" height="16.28" style="fill:#fff;fill-rule:nonzero;"/><rect x="702.331" y="294.204" width="3.372" height="16.28" style="fill:#fff;fill-rule:nonzero;"/><rect x="682.1" y="272.497" width="3.372" height="13.179" style="fill:#fff;fill-rule:nonzero;"/><rect x="688.843" y="272.497" width="3.372" height="13.179" style="fill:#fff;fill-rule:nonzero;"/><rect x="695.587" y="272.497" width="3.372" height="13.179" style="fill:#fff;fill-rule:nonzero;"/><rect x="682.1" y="254.667" width="3.372" height="13.179" style="fill:#fff;fill-rule:nonzero;"/><rect x="688.843" y="254.667" width="3.372" height="13.179" style="fill:#fff;fill-rule:nonzero;"/><rect x="695.587" y="254.667" width="3.372" height="13.179" style="fill:#fff;fill-rule:nonzero;"/><path d="M792.225,334.516l0,-59.951c0,-26.458 -39.057,-43.931 -39.057,-43.931l0,103.882l39.057,0Z" style="fill:#454c53;fill-rule:nonzero;"/><rect x="758.809" y="295.754" width="4.215" height="14.73" style="fill:#fff;fill-rule:nonzero;"/><rect x="766.396" y="295.754" width="4.215" height="14.73" style="fill:#fff;fill-rule:nonzero;"/><rect x="781.569" y="295.754" width="4.215" height="14.73" style="fill:#fff;fill-rule:nonzero;"/><rect x="758.809" y="275.598" width="4.215" height="14.73" style="fill:#fff;fill-rule:nonzero;"/><rect x="773.982" y="275.598" width="4.215" height="14.73" style="fill:#fff;fill-rule:nonzero;"/><rect x="781.569" y="275.598" width="4.215" height="14.73" style="fill:#fff;fill-rule:nonzero;"/><rect x="758.809" y="255.442" width="4.215" height="14.73" style="fill:#fff;fill-rule:nonzero;"/><rect x="766.396" y="255.442" width="4.215" height="14.73" style="fill:#fff;fill-rule:nonzero;"/><path d="M819.34,334.641l-6.041,-44.514l2.5,-32.23l0.31,-4.005l-0.31,4.005c2.89,-1.14 4.595,-3.114 4.595,-5.362c0,-3.238 -3.421,-5.907 -9.322,-6.331l0,-22.547l-2.529,0l0,22.518c-5.057,0.334 -9.223,3.053 -9.223,6.36c0,2.248 2.02,4.222 4.911,5.362l2.552,32.23l-6.014,44.514l-2.081,0.651l22.759,0l-2.107,-0.651Z" style="fill:#c33;fill-rule:nonzero;"/></g></g></g><rect x="-37" y="341.817" width="1317" height="208.183" style="fill:#e6ebac;"/><rect x="-12.933" y="323.871" width="1292.93" height="43.333" style="fill:#656e76;"/><g id="persona"><g id="laptop"><path d="M405.42,502.916l-0.841,-142.932c0.177,-4.969 -1.929,-7.365 -6.726,-6.726l-188.334,-0.841l-46.441,0l0.02,149.41l242.322,1.089Z" style="fill:#120e0b;stroke:#a38981;stroke-width:1px;stroke-linecap:round;stroke-miterlimit:1.5;"/><rect x="171.684" y="359.984" width="226.169" height="139.318" style="fill:#f0f0f0;"/><clipPath id="_clip2"><rect x="171.684" y="359.984" width="226.169" height="139.318"/></clipPath><g clip-path="url(#_clip2)"><rect x="185.994" y="371.755" width="197.548" height="44" style="fill:#86c0d1;"/><rect x="185.994" y="420.306" width="95.774" height="44" style="fill:#bbf06e;"/><rect x="185.994" y="470.306" width="95.774" height="44" style="fill:#b3ee5e;"/><rect x="287.768" y="420.306" width="95.774" height="74.203" style="fill:#ddaf40;"/></g><path d="M163.187,512.967l254.376,-0.724c5.528,-2.344 7.048,-5.787 5.353,-12.813l-259.838,-0.127l0.109,13.664Z" style="fill:#a38981;stroke:#a38981;stroke-width:1px;stroke-linecap:round;stroke-miterlimit:1.5;"/></g><g id="mesa"><rect x="-12.933" y="528.14" width="516.724" height="21.86" style="fill:#9b6943;stroke:#9b6943;stroke-width:1px;stroke-linecap:round;stroke-miterlimit:1.5;"/><path d="M-12.933,528.14l534.893,-0.583l0,-14.59l-534.893,0l0,15.173Z" style="fill:#c69b6c;stroke:#c69b6c;stroke-width:1px;stroke-linecap:round;stroke-miterlimit:1.5;"/></g><g id="person"><path d="M231.452,272.526c14.635,10.982 11.31,28.215 2.891,41.966c-2.741,4.476 -2.785,10.666 -5.694,14.366l0.28,-42.599c-0.329,-4.53 -0.915,-9.05 2.523,-13.733Z" style="fill:#513f33;stroke:#513f33;stroke-width:1px;stroke-linecap:round;stroke-miterlimit:1.5;"/><path d="M167.606,383.076l0,-15.414c27.637,5.138 47.972,-0.628 58.575,-24.663c5.9,-1.521 6.577,-5.773 1.961,-10.369c3.416,-15.718 4.09,-39.736 2.523,-54.651c-13.176,-9.875 -28.846,-3.131 -43.44,-3.083c-24.759,25.413 -41.152,55.644 -50.447,89.964l-1.121,8.688l31.949,9.528Z" style="fill:#f7c9a2;stroke:#e0a470;stroke-width:1px;stroke-linecap:round;stroke-miterlimit:1.5;"/><ellipse cx="213.008" cy="321.279" rx="5.885" ry="5.745" style="fill:#47342a;"/><path d="M218.333,349.726c-8.628,10.094 -17.378,1.339 -14.853,-7.848c5.629,2.092 10.995,4.387 14.853,7.848Z" style="fill:#f36665;stroke:#f36665;stroke-width:1px;stroke-linecap:round;stroke-miterlimit:1.5;"/><path d="M233.413,276.73c-29.901,13.888 -44.672,40.378 -58.84,66.614c-5.868,10.868 -17.121,16.426 -21.594,28.394l-2.522,-9.7c-3.124,4.351 -7.484,6.48 -12.892,6.726l1.681,-5.885c-25.568,8.678 -43.44,-18.202 -43.44,-18.202l3.924,-0.561c-11.937,-11.252 -20.897,-19.564 -25.784,-34.472c30.43,-27.545 47.625,-69.759 79.858,-83.341c4.386,-1.848 10.836,2.756 15.43,1.505c3.088,0.582 7.15,-2.713 9.828,-1.366c26.116,13.131 46.075,26.351 54.351,50.288Z" style="fill:#513f33;stroke:#513f33;stroke-width:1px;stroke-linecap:round;stroke-miterlimit:1.5;"/><path d="M51.452,550c7.35,-66.484 14.681,-131.579 49.578,-162.413c8.381,-7.405 18.353,-12.834 30.296,-15.832l36.154,10.089c14.837,7.895 29.38,25.035 33.631,52.129l-15.117,8.333l-0.017,29.502c1.971,28.698 10.809,54.082 8.552,78.192l-143.077,0Z" style="fill:#6f7063;"/><path d="M339.839,497.872l-13.452,0c-6.233,-1.813 -4.425,-2.331 -0.841,-3.363l17.656,0c1.355,-1.777 0.795,-3.179 -1.681,-4.204l-16.816,0c-2.729,-2.339 -2.408,-3.317 0,-3.363l10.65,0.84c2.782,-0.748 0.409,-4.614 -6.166,-4.484c-21.783,-1.08 -27.691,-0.248 -30.548,5.045c-21.271,1.647 -44.395,0.063 -64.303,7.96c-10.879,-25.344 -17.623,-43.295 -34.01,-66.66l-35.571,16.266c0,0 25.522,43.167 36.354,60.226c5.878,9.257 9.578,13.797 18.007,17.801c7.08,3.363 18.589,0.279 30.082,-1.728c15.804,-2.759 32.733,-9.341 47.76,-13.406c13.667,0.983 27.661,0.462 42.039,0c2.195,-1.777 1.915,-3.178 -0.841,-4.204l-14.293,0.841c-1.666,-1.074 -1.979,-2.414 0,-4.204l15.974,0c2.391,-1.074 2.613,-2.414 -0.84,-4.204" style="fill:#f7c9a2;stroke:#e0a470;stroke-width:1px;stroke-linecap:round;stroke-miterlimit:1.5;"/><path d="M163,454.988c-37.777,-55.2 14.664,-97.18 43.111,-19.265l-43.111,19.265Z" style="fill:#67685f;"/></g></g><path d="M1181.94,101.272c0,-16.922 -13.739,-30.66 -30.66,-30.66l-418.28,0c-16.922,0 -30.66,13.738 -30.66,30.66l0,376.68c0,16.922 13.738,30.66 30.66,30.66l418.28,0c16.921,0 30.66,-13.738 30.66,-30.66l0,-376.68Z" style="fill-opacity:0.333333;"/></g></g></svg>