<?xml version="1.0" encoding="UTF-8" standalone="no"?><!DOCTYPE svg PUBLIC "-//W3C//DTD SVG 1.1//EN" "http://www.w3.org/Graphics/SVG/1.1/DTD/svg11.dtd"><svg width="100%" height="100%" viewBox="0 0 3088 2056" version="1.1" xmlns="http://www.w3.org/2000/svg" xmlns:xlink="http://www.w3.org/1999/xlink" xml:space="preserve" style="fill-rule:evenodd;clip-rule:evenodd;stroke-linejoin:round;stroke-miterlimit:1.41421;"><g id="Capa1"><path d="M3479.57,997.89c-1236.11,184.652 -2483.44,195.206 -3742.09,30.11l0,-1066.71l3677.57,0l64.519,1036.6Z" style="fill:#eff5ae;"/><path d="M0,1028l-154.996,0l0,1114.03l3380.79,0l81.724,-1114.03l-219.515,0c-1029.38,-40.593 -2058.71,-39.697 -3088,0Z" style="fill:#738798;"/><path d="M322.444,1165.64c704.018,28.871 1489.71,28.48 2193.64,0c44.442,-164.361 52.509,-307.456 59.359,-412.45c13.815,-211.744 -43.283,-281.722 -278.723,-151.014c20.823,-99.974 -8.818,-235.387 -64.725,-240.871c-258.224,-25.327 -455.159,5.394 -687.995,0c-285.375,-11.509 -570.691,-11.43 -855.95,0c-146.197,-3.653 -96.085,117.497 -103.23,240.871c-143.401,-78.042 -258.075,-74.807 -302.163,0c-51.73,87.771 -16.009,275.271 39.787,563.464Z" style="fill:#ec3a3a;"/><path d="M2442.96,1178.54c83.072,-317.544 32.845,-472.012 -146.242,-468.837c-567.792,-67.556 -1135.55,-58.618 -1703.3,0c-246.822,-22.854 -273.041,171.059 -193.557,468.837c680.995,16.93 1362.02,18.341 2043.1,0Z" style="fill:#d93838;"/></g></svg>